<svg xmlns="http://www.w3.org/2000/svg" width="194" height="194" viewBox="0 0 194 194">
  <g id="Group_9213" data-name="Group 9213" transform="translate(-1277 -3020)">
    <g id="Ellipse_5" data-name="Ellipse 5" transform="translate(1277 3020)" fill="#2d0207" stroke="#9b111e" stroke-width="1">
      <circle cx="97" cy="97" r="97" stroke="none"/>
      <circle cx="97" cy="97" r="96.5" fill="none"/>
    </g>
    <g id="Group_9208" data-name="Group 9208" transform="translate(2184.265 155.009)">
      <path id="Path_3434" data-name="Path 3434" d="M1004.638,9.655C996.808,3.193,986.089,0,972.4,0H938.346V4.789H971.8c11.631,0,22.122,2.357,28.584,7.983A31.543,31.543,0,0,1,1011.632,36.8c0,9.883-4.257,17.1-10.871,22.655s-18.625,7.982-30.561,7.982H931.808v4.789h38.7q21.552,0,33.754-9.35c8.058-6.234,12.164-15.053,12.164-26.38,0-11.555-3.953-20.45-11.784-26.836" transform="translate(-1780.932 2902.991)" fill="#ffa7b0"/>
      <path id="Path_3435" data-name="Path 3435" d="M1006.2,19c-4.866-3.725-10.415-6.69-26.229-6.69h-26.3v4.638s11.784-.152,25.7,0c13.456.151,18.4,1.672,22.959,5.017,5.778,4.257,9.427,9.579,9.427,16.953,0,7.146-3.649,12.164-9.5,16.5-5.93,4.41-15.052,4.41-18.778,4.562H963.932v4.637s8.97.152,14.6,0c12.772-.3,20.375-1.065,27.445-6.31,6.614-4.942,10.111-11.4,10.111-19.614,0-10.795-5.474-16.193-9.882-19.69" transform="translate(-1785.384 2900.483)" fill="#ffa7b0"/>
      <path id="Path_3436" data-name="Path 3436" d="M995.777,27.475c-3.649-2.281-6.842-3.8-21.97-3.8h-18.93v3.041h18.4c13.38,0,18.4,2.357,19.994,3.346,3.041,1.824,6.994,4.865,6.994,10.947,0,3.878-2.281,8.819-5.7,10.719-3.117,1.749-8.819,3.345-18.778,3.345H914.052v3.041h61.883c12.087,0,16.193-1.368,20.45-3.725s7.146-7.222,7.146-13.38c0-6.994-3.877-11.1-7.754-13.532" transform="translate(-1777.317 2898.17)" fill="#ffa7b0"/>
      <path id="Path_3437" data-name="Path 3437" d="M1013.134,68.268c-7.831-6.462-18.55-9.655-32.234-9.655H958.094V63.4h22.122c11.632,0,22.123,2.433,28.585,7.983a31.482,31.482,0,0,1,11.327,24.023c0,9.883-4.181,17.1-10.871,22.655s-18.626,7.982-30.561,7.982H940.3v4.789H979q21.552,0,33.754-9.35c8.134-6.234,12.163-15.053,12.163-26.38-.076-11.48-3.953-20.374-11.783-26.836" transform="translate(-1782.662 2891.056)" fill="#ffa7b0"/>
      <path id="Path_3438" data-name="Path 3438" d="M1012.287,77.617c-4.865-3.649-10.415-6.69-26.228-6.69H950.328v4.638s21.21-.152,35.122,0c13.457.152,18.4,1.672,22.959,5.017,5.779,4.257,9.427,9.579,9.427,16.953,0,7.146-3.65,12.164-9.5,16.5-5.929,4.41-15.052,4.41-18.777,4.562H970.018v4.637s9.047.152,14.6,0c12.773-.3,20.375-1.065,27.446-6.31,6.613-4.942,10.11-11.4,10.11-19.614,0-10.719-5.4-16.193-9.882-19.69" transform="translate(-1784.703 2888.548)" fill="#ffa7b0"/>
      <rect id="Rectangle_3499" data-name="Rectangle 3499" width="33.526" height="2.585" transform="translate(-826.773 2979.393)" fill="#ffa7b0"/>
      <rect id="Rectangle_3500" data-name="Rectangle 3500" width="19.462" height="2.204" transform="translate(-812.937 2988.821)" fill="#ffa7b0"/>
      <rect id="Rectangle_3501" data-name="Rectangle 3501" width="9.883" height="2.585" transform="translate(-842.358 2979.393)" fill="#ffa7b0"/>
      <rect id="Rectangle_3502" data-name="Rectangle 3502" width="30.181" height="2.585" transform="translate(-848.591 2988.592)" fill="#ffa7b0"/>
      <rect id="Rectangle_3503" data-name="Rectangle 3503" width="11.783" height="2.129" transform="translate(-841.141 2922.528)" fill="#ffa7b0"/>
      <rect id="Rectangle_3504" data-name="Rectangle 3504" width="26.836" height="2.433" transform="translate(-849.276 2939.557)" fill="#ffa7b0"/>
      <rect id="Rectangle_3505" data-name="Rectangle 3505" width="28.357" height="3.041" transform="translate(-848.591 3008.435)" fill="#ffa7b0"/>
      <rect id="Rectangle_3506" data-name="Rectangle 3506" width="7.07" height="4.485" transform="translate(-855.586 3017.101)" fill="#ffa7b0"/>
      <rect id="Rectangle_3507" data-name="Rectangle 3507" width="44.549" height="2.433" transform="translate(-837.949 2931.955)" fill="#ffa7b0"/>
      <rect id="Rectangle_3508" data-name="Rectangle 3508" width="21.438" height="2.433" transform="translate(-815.674 2939.557)" fill="#ffa7b0"/>
      <path id="Path_3439" data-name="Path 3439" d="M1004.273,86.68c-3.649-2.2-6.842-3.725-21.97-3.725H958.279V85.92h23.567c13.38,0,18.474,2.281,19.994,3.193,2.965,1.748,6.995,4.637,6.995,10.567,0,3.8-2.281,8.515-5.7,10.339-3.117,1.672-8.818,3.193-18.778,3.193H922.548v2.965h61.883c12.087,0,16.193-1.293,20.45-3.573s7.07-6.918,7.07-12.924c.076-6.614-3.8-10.567-7.678-13" transform="translate(-1779.047 2886.099)" fill="#ffa7b0"/>
    </g>
  </g>
</svg>
