<svg id="Group_9263" data-name="Group 9263" xmlns="http://www.w3.org/2000/svg" xmlns:xlink="http://www.w3.org/1999/xlink" width="168.013" height="181.843" viewBox="0 0 168.013 181.843">
  <defs>
    <clipPath id="clip-path">
      <rect id="Rectangle_3535" data-name="Rectangle 3535" width="168.013" height="181.843" fill="none"/>
    </clipPath>
  </defs>
  <g id="Group_9262" data-name="Group 9262" clip-path="url(#clip-path)">
    <path id="Path_3524" data-name="Path 3524" d="M349,298.035a15.649,15.649,0,0,0-15.633,15.63v16h20.536c.988-1.494,1.967-3.031,2.933-4.642a112.493,112.493,0,0,0,7.4-14.847A15.657,15.657,0,0,0,349,298.035" transform="translate(-219.021 -195.807)" fill="#2d0207"/>
    <path id="Path_3525" data-name="Path 3525" d="M114.157,157.266a5.659,5.659,0,0,1,5.658-5.655H123v-16a24.733,24.733,0,0,1,44.242-15.212c6.213-19.6,8.447-39.547,9.241-51.983A10.509,10.509,0,0,0,170.662,58.2L105.934,27.948a9.752,9.752,0,0,0-8.318,0L32.882,58.2a10.509,10.509,0,0,0-5.817,10.208c1.169,18.275,5.434,52.786,20.9,78.557C67.2,179.029,90.5,187.647,99.626,189.863a9.142,9.142,0,0,0,4.3,0,59.42,59.42,0,0,0,10.23-3.58Z" transform="translate(-17.767 -17.749)" fill="#2d0207"/>
    <path id="Path_3526" data-name="Path 3526" d="M393.24,352.929h10.727v-16a15.549,15.549,0,0,0-.4-3.486,112.534,112.534,0,0,1-7.4,14.847c-.967,1.611-1.945,3.148-2.933,4.642" transform="translate(-258.355 -219.067)" fill="#9b111e"/>
    <path id="Path_3527" data-name="Path 3527" d="M156.822,32.051,92.094,1.8a19.13,19.13,0,0,0-16.176,0L11.187,32.051A19.842,19.842,0,0,0,.04,51.255c1.221,19.115,5.729,55.284,22.2,82.738,21.033,35.061,47.165,44.643,57.431,47.138a18.433,18.433,0,0,0,8.668,0,65.32,65.32,0,0,0,8.5-2.728,5.656,5.656,0,0,1-.448-2.212v-7.655a59.458,59.458,0,0,1-10.23,3.581,9.142,9.142,0,0,1-4.3,0C72.734,169.9,49.43,161.28,30.2,129.22,14.731,103.449,10.466,68.938,9.3,50.663a10.509,10.509,0,0,1,5.817-10.208L79.849,10.2a9.755,9.755,0,0,1,8.318,0l64.728,30.256a10.51,10.51,0,0,1,5.821,10.208c-.8,12.435-3.028,32.382-9.242,51.982a24.6,24.6,0,0,1,5.158,13.151c9.352-23.684,12.374-49.436,13.341-64.544a19.85,19.85,0,0,0-11.15-19.2" transform="translate(0 0)" fill="#9b111e"/>
    <path id="Path_3528" data-name="Path 3528" d="M315.91,312.214v-16a15.631,15.631,0,0,1,31.262,0v16h9.113v-16a24.745,24.745,0,0,0-49.491,0v16Z" transform="translate(-201.561 -178.352)" fill="#ffbe1b"/>
    <path id="Path_3529" data-name="Path 3529" d="M342.539,438.24H286.672a5.657,5.657,0,0,1-5.658-5.655V395.914a5.659,5.659,0,0,1,5.658-5.655h55.867a5.656,5.656,0,0,1,5.655,5.655v36.672a5.654,5.654,0,0,1-5.655,5.655" transform="translate(-184.624 -256.397)" fill="#bf3c4f"/>
    <path id="Path_3530" data-name="Path 3530" d="M165.345,201.418a9.506,9.506,0,0,1-6.606-2.672L139.145,179.8a9.508,9.508,0,0,1,13.222-13.666l12.264,11.862,30.017-35.69a9.5,9.5,0,1,1,14.547,12.233l-36.574,43.5a9.5,9.5,0,0,1-6.781,3.372c-.166.012-.328.015-.494.015" transform="translate(-89.515 -91.265)" fill="#ffa7b0"/>
  </g>
</svg>
