<svg id="Group_9259" data-name="Group 9259" xmlns="http://www.w3.org/2000/svg" xmlns:xlink="http://www.w3.org/1999/xlink" width="184.71" height="184.706" viewBox="0 0 184.71 184.706">
  <defs>
    <clipPath id="clip-path">
      <rect id="Rectangle_3533" data-name="Rectangle 3533" width="184.71" height="184.706" fill="none"/>
    </clipPath>
  </defs>
  <g id="Group_9258" data-name="Group 9258" clip-path="url(#clip-path)">
    <path id="Path_3506" data-name="Path 3506" d="M184.71,92.357A92.355,92.355,0,1,1,92.353,0,92.355,92.355,0,0,1,184.71,92.357" fill="#9b111e"/>
    <path id="Path_3507" data-name="Path 3507" d="M209.262,139.932a69.325,69.325,0,1,1-69.327-69.327,69.325,69.325,0,0,1,69.327,69.327" transform="translate(-47.581 -47.576)" fill="#ffa7b0"/>
    <path id="Path_3508" data-name="Path 3508" d="M252.659,129.239a1.566,1.566,0,0,0-1.453-1.027c-.948.032-21.6-.085-33.526,10.707-5.6,5.071-18.346,26.06-18.346,26.06l-9.753,18.13s-.551,1.088-.776,1.534a3.993,3.993,0,0,0,1.278,5.083l2.135,1.506,20.832,14.7,2.135,1.506a4,4,0,0,0,5.22-.5c.347-.356,1.185-1.237,1.185-1.237L235.4,190.431s15.5-19.037,18.407-26.018c6.171-14.856-.849-34.351-1.153-35.174m-59.728,83.095c-4.131-2.915-3.209-11.341,1.873-19.276l15.7,11.075c-5.777,7.46-13.436,11.122-17.57,8.2" transform="translate(-126.933 -86.394)" fill="#2d0207"/>
    <path id="Path_3509" data-name="Path 3509" d="M290.212,334.246a26.486,26.486,0,0,1,8.449,16.939.962.962,0,0,0,1.783.4c6.494-10.582,8.971-23.766,3.583-32.61,0,0-13.949,15.411-13.815,15.271" transform="translate(-195.556 -214.938)" fill="#9b111e"/>
    <path id="Path_3510" data-name="Path 3510" d="M131.006,254.435a.962.962,0,0,0,.975,1.546,26.5,26.5,0,0,1,18.795,2.281c-.128.254-.25.5-.37.729l10.3-19.174c-.061.105-.12.21-.181.315-10.138-2.118-21.727,4.639-29.523,14.3" transform="translate(-88.128 -161.549)" fill="#9b111e"/>
    <path id="Path_3511" data-name="Path 3511" d="M303.413,201.206a11.72,11.72,0,1,1-11.721-11.721,11.72,11.72,0,0,1,11.721,11.721" transform="translate(-188.657 -127.683)" fill="#8ac9f9"/>
    <path id="Path_3512" data-name="Path 3512" d="M288.365,211.209a13.33,13.33,0,1,1,13.33-13.33,13.347,13.347,0,0,1-13.33,13.33m0-23.439a10.109,10.109,0,1,0,10.109,10.109,10.119,10.119,0,0,0-10.109-10.109" transform="translate(-185.33 -124.356)" fill="#ffbe1b"/>
    <path id="Path_3513" data-name="Path 3513" d="M183.331,321.427l20.832,14.7s-16.222,21.5-25.517,14.048c-9.94-7.968,4.685-28.75,4.685-28.75" transform="translate(-118.045 -216.59)" fill="#ffbe1b"/>
    <path id="Path_3514" data-name="Path 3514" d="M196.979,346.3c-4.131-2.915-3.209-11.341,1.873-19.276l15.7,11.075c-5.777,7.46-13.436,11.122-17.57,8.2" transform="translate(-130.982 -220.363)" fill="#ffe37b"/>
  </g>
</svg>
