<svg id="Group_9261" data-name="Group 9261" xmlns="http://www.w3.org/2000/svg" xmlns:xlink="http://www.w3.org/1999/xlink" width="181.843" height="181.843" viewBox="0 0 181.843 181.843">
  <defs>
    <clipPath id="clip-path">
      <rect id="Rectangle_3534" data-name="Rectangle 3534" width="181.843" height="181.843" fill="none"/>
    </clipPath>
  </defs>
  <g id="Group_9260" data-name="Group 9260" clip-path="url(#clip-path)">
    <path id="Path_3515" data-name="Path 3515" d="M15.91,194.749V87.254c0-.233.011-.467.019-.7A21.269,21.269,0,0,0,0,107.14v67.726a21.276,21.276,0,0,0,15.929,20.588c-.008-.234-.019-.468-.019-.7" transform="translate(0 -50.082)" fill="#bf3c4f"/>
    <path id="Path_3516" data-name="Path 3516" d="M393.747,86.553c.008.233.019.467.019.7v107.5c0,.237-.011.471-.019.7a21.28,21.28,0,0,0,15.929-20.588V107.14a21.273,21.273,0,0,0-15.929-20.587" transform="translate(-227.832 -50.082)" fill="#bf3c4f"/>
    <path id="Path_3517" data-name="Path 3517" d="M167.219,15.925A21.277,21.277,0,0,0,146.632,0H78.906A21.273,21.273,0,0,0,58.318,15.925,21.258,21.258,0,0,0,37.757,37.172V144.667a21.258,21.258,0,0,0,20.561,21.247,21.276,21.276,0,0,0,20.587,15.929h67.726a21.277,21.277,0,0,0,20.587-15.929,21.26,21.26,0,0,0,20.561-21.247V37.172a21.26,21.26,0,0,0-20.561-21.247" transform="translate(-21.847)" fill="#9b111e"/>
    <path id="Path_3518" data-name="Path 3518" d="M352.9,70.183a5.965,5.965,0,1,1-5.965-5.965,5.965,5.965,0,0,1,5.965,5.965" transform="translate(-197.294 -37.158)" fill="#ffbe1b"/>
    <path id="Path_3519" data-name="Path 3519" d="M74.2,70.183a5.965,5.965,0,1,1-5.965-5.965A5.965,5.965,0,0,1,74.2,70.183" transform="translate(-36.029 -37.158)" fill="#ffbe1b"/>
    <path id="Path_3520" data-name="Path 3520" d="M352.9,344.972a5.966,5.966,0,1,1-5.966-5.966,5.966,5.966,0,0,1,5.966,5.966" transform="translate(-197.293 -196.158)" fill="#ffbe1b"/>
    <path id="Path_3521" data-name="Path 3521" d="M74.2,344.972a5.966,5.966,0,1,1-5.966-5.966,5.966,5.966,0,0,1,5.966,5.966" transform="translate(-36.028 -196.158)" fill="#ffbe1b"/>
    <path id="Path_3522" data-name="Path 3522" d="M163.892,126.108a37.783,37.783,0,1,0,37.782,37.783,37.824,37.824,0,0,0-37.782-37.783" transform="translate(-72.97 -72.969)" fill="#2d0207"/>
    <path id="Path_3523" data-name="Path 3523" d="M198.706,152.966a45.713,45.713,0,0,0-78.2-32.19c-.049.046-.105.08-.155.128-.072.076-.124.159-.192.238a45.629,45.629,0,0,0-.694,62.917,3.983,3.983,0,0,0,.886,1.368,3.941,3.941,0,0,0,1.372.9,45.626,45.626,0,0,0,63.233-.713c.072-.064.155-.113.223-.185.045-.041.071-.09.109-.131a45.587,45.587,0,0,0,13.415-32.329m-16.494,23.893-9.936-9.89a23.788,23.788,0,0,0,.166-27.772l9.951-9.9a37.691,37.691,0,0,1-.181,47.564M137.06,152.966a15.817,15.817,0,0,1,2.047-7.784l8.025,7.983L139.261,161a15.81,15.81,0,0,1-2.2-8.032m7.561-13.517a15.746,15.746,0,0,1,16.445-.15l-8.3,8.254Zm8.149,19.329,8.048,8.009a15.784,15.784,0,0,1-15.944-.154Zm5.635-5.612,8.273-8.232a15.768,15.768,0,0,1-.155,16.313Zm18.375-29.51-9.947,9.9a23.788,23.788,0,0,0-27.961.166l-9.936-9.89a37.7,37.7,0,0,1,47.843-.177m-53.407,5.865,9.959,9.909a23.786,23.786,0,0,0,.165,27.3l-9.947,9.9a37.669,37.669,0,0,1-.177-47.115m5.79,52.754,9.951-9.906a23.781,23.781,0,0,0,27.482.166l9.958,9.913a37.669,37.669,0,0,1-47.391-.174" transform="translate(-62.048 -62.044)" fill="#ffa7b0"/>
  </g>
</svg>
