<svg id="Group_9311" data-name="Group 9311" xmlns="http://www.w3.org/2000/svg" xmlns:xlink="http://www.w3.org/1999/xlink" width="152.95" height="180.38" viewBox="0 0 152.95 180.38">
  <defs>
    <clipPath id="clip-path">
      <rect id="Rectangle_3561" data-name="Rectangle 3561" width="152.95" height="180.38" fill="none"/>
    </clipPath>
  </defs>
  <g id="Group_9310" data-name="Group 9310" clip-path="url(#clip-path)">
    <path id="Path_3572" data-name="Path 3572" d="M111.334,43.271l7.574-8.7a5.833,5.833,0,0,0-.57-8.231l-8.131-7.075a5.835,5.835,0,0,0-8.23.569l-7.013,8.059a76.8,76.8,0,0,1,16.371,15.382" transform="translate(25.125 4.717)" fill="#9b111e"/>
    <path id="Path_3573" data-name="Path 3573" d="M14.923,43.271A76.919,76.919,0,0,1,31.294,27.889l-7.01-8.059a5.839,5.839,0,0,0-8.234-.569L7.923,26.336a5.829,5.829,0,0,0-.569,8.231Z" transform="translate(1.566 4.717)" fill="#9b111e"/>
    <path id="Path_3574" data-name="Path 3574" d="M64.853,18.952a76.6,76.6,0,0,1,20.93,2.9V5.833A5.833,5.833,0,0,0,79.948,0H49.76a5.834,5.834,0,0,0-5.837,5.833V21.849a76.6,76.6,0,0,1,20.93-2.9" transform="translate(11.621)" fill="#9b111e"/>
    <path id="Path_3575" data-name="Path 3575" d="M91.074,161.59a7.377,7.377,0,0,1,7.378-7.375h10.523a10.749,10.749,0,0,1-1.788-7.417c.467-3.882,3.365-6.853,6.373-8.927a4.7,4.7,0,0,0,.429-7.576c-8.253-7-15.227-19.64-15.227-29.27,0-16.938,10.3-24.213,22.576-25.047a2.182,2.182,0,0,1,.34,0c12.274.835,22.573,8.11,22.573,25.047,0,9.63-6.973,22.272-15.222,29.27a4.7,4.7,0,0,0,.427,7.576,18.2,18.2,0,0,1,4.4,4.136,76.358,76.358,0,1,0-42.782,24.529Z" transform="translate(0 3.965)" fill="#ffa7b0"/>
    <path id="Path_3576" data-name="Path 3576" d="M110.46,134.772a4.7,4.7,0,0,0,.429-7.576c-8.253-7-15.225-19.64-15.225-29.27,0-16.938,10.3-24.213,22.575-25.047a2.2,2.2,0,0,1,.341,0c6.084.412,11.685,2.415,15.783,6.386a61.653,61.653,0,1,0-29.734,62.251,15.213,15.213,0,0,1,5.831-6.744" transform="translate(3.1 7.065)" fill="#9b111e"/>
    <path id="Path_3577" data-name="Path 3577" d="M67.236,76.174l-3.642-37.14a1.036,1.036,0,0,0-2.063,0L57.985,76.183a10.282,10.282,0,1,0,9.25-.009" transform="translate(13.85 10.08)" fill="#fff"/>
    <path id="Path_3578" data-name="Path 3578" d="M93.325,117.537a4.7,4.7,0,0,1-.429,7.576c-3.008,2.075-5.906,5.044-6.373,8.928a10.751,10.751,0,0,0,1.788,7.417H113.38a10.751,10.751,0,0,0,1.788-7.417c-.464-3.883-3.365-6.853-6.373-8.928a4.7,4.7,0,0,1-.429-7.576c8.249-7,15.223-19.639,15.223-29.269,0-16.938-10.3-24.213-22.573-25.049a2.2,2.2,0,0,0-.341,0C88.4,64.055,78.1,71.33,78.1,88.268c0,9.63,6.973,22.27,15.225,29.269" transform="translate(20.663 16.724)" fill="#bf3c4f"/>
    <path id="Path_3579" data-name="Path 3579" d="M74.867,139.043v1.707a2.847,2.847,0,0,0,2.843,2.843h47.979a2.845,2.845,0,0,0,2.844-2.843v-1.707Z" transform="translate(19.808 36.787)" fill="#bf3c4f"/>
    <path id="Path_3580" data-name="Path 3580" d="M132.885,142.736V132.461a7.375,7.375,0,0,0-7.374-7.375H79.4a7.377,7.377,0,0,0-7.378,7.375v10.275Z" transform="translate(19.054 33.094)" fill="#fff"/>
  </g>
</svg>
