<svg xmlns="http://www.w3.org/2000/svg" width="194" height="194" viewBox="0 0 194 194">
  <g id="Group_9210" data-name="Group 9210" transform="translate(-434 -3020)">
    <g id="Ellipse_2" data-name="Ellipse 2" transform="translate(434 3020)" fill="#2d0207" stroke="#9b111e" stroke-width="1">
      <circle cx="97" cy="97" r="97" stroke="none"/>
      <circle cx="97" cy="97" r="96.5" fill="none"/>
    </g>
    <path id="Path_3416" data-name="Path 3416" d="M172.944,65.426c0-8.756.027-17.513-.028-26.269a2.852,2.852,0,0,1,1.691-2.833Q205.439,18.56,236.2.671a3.645,3.645,0,0,1,4.249.023q30.6,17.81,61.288,35.452a3.4,3.4,0,0,1,1.968,3.4q-.1,26-.006,52.01a3.135,3.135,0,0,1-1.788,3.146q-30.915,17.8-61.761,35.722a3.118,3.118,0,0,1-3.611.009q-30.926-17.961-61.927-35.795a3.268,3.268,0,0,1-1.865-3.3c.078-8.637.037-17.276.037-25.914h.162m86.2,22.846c-.585.446-.934.748-1.317,1-3.434,2.247-6.928,4.406-10.288,6.76a3.114,3.114,0,0,1-3.9.061Q217.81,81.073,191.921,66.175c-2.012-1.161-4.058-2.265-6.275-3.5a11.384,11.384,0,0,0-.3,1.667c-.031,6.462-.095,12.924.01,19.383a3.356,3.356,0,0,0,1.484,2.361q24.927,14.574,49.925,29.023a2.653,2.653,0,0,0,3.017.006c3.889-2.315,7.82-4.559,11.739-6.823q18.966-10.961,37.932-21.922c1.685-.975,1.724-1.573.116-2.5Q270.532,72.85,251.483,61.854a1.742,1.742,0,0,0-2.608.514c-3.344,4.126-6.756,8.2-10.132,12.3a14.7,14.7,0,0,0-.849,1.317l21.248,12.286m-44.16-47.493a16.464,16.464,0,0,1,1.311-1.025c3.5-2.141,7.045-4.212,10.5-6.428a3.317,3.317,0,0,1,3.959-.031Q259.8,50.127,288.927,66.84c.55.317,1.134.574,1.964.991a24.956,24.956,0,0,0,.285-2.548c.023-5.978-.021-11.956.04-17.934a3.341,3.341,0,0,0-1.969-3.278Q265.011,30.113,240.865,16a4.406,4.406,0,0,0-5.106-.018c-16.152,9.431-32.36,18.768-48.543,28.147a21.125,21.125,0,0,0-1.876,1.414c.8.516,1.321.889,1.876,1.209,3.292,1.9,6.6,3.781,9.887,5.683Q210.19,60,223.271,67.569c1.007.582,1.9,1.161,2.957-.164,3.235-4.059,6.593-8.02,9.889-12.03.395-.48.7-1.035,1.144-1.7l-22.279-12.9" transform="translate(293.255 3051)" fill="#ffa7b0"/>
  </g>
</svg>
