<svg id="i-1" xmlns="http://www.w3.org/2000/svg" xmlns:xlink="http://www.w3.org/1999/xlink" width="77.268" height="72.753" viewBox="0 0 77.268 72.753">
  <defs>
    <clipPath id="clip-path">
      <rect id="Rectangle_3495" data-name="Rectangle 3495" width="77.268" height="72.753" fill="none"/>
    </clipPath>
  </defs>
  <g id="Group_9193" data-name="Group 9193" clip-path="url(#clip-path)">
    <path id="Path_3391" data-name="Path 3391" d="M184.828,110.289h17.031a3.5,3.5,0,0,0,3.5-3.5V77.031a3.5,3.5,0,0,0-3.5-3.5H165.148a3.5,3.5,0,0,0-3.5,3.485V84.34a1.971,1.971,0,1,0,3.942,0V77.472h35.8v28.874H184.829a1.971,1.971,0,0,0-1.971,1.971h0a1.971,1.971,0,0,0,1.971,1.971" transform="translate(-138.887 -63.177)" fill="#fffdf5"/>
    <path id="Path_3392" data-name="Path 3392" d="M87.183,24.151a1.971,1.971,0,0,0,1.971-1.971V5.039a1.1,1.1,0,0,1,1.1-1.1h55.194a1.1,1.1,0,0,1,1.1,1.1v47.38a1.1,1.1,0,0,1-1.1,1.1h-7.688a1.972,1.972,0,0,0-1.971,1.971v3.343a1.356,1.356,0,0,1-1.348,1.356H127.68a1.356,1.356,0,0,1-1.349-1.356V55.485a1.971,1.971,0,0,0-1.971-1.971h-6.529a1.971,1.971,0,1,0,0,3.942h4.55v1.372a5.3,5.3,0,0,0,5.29,5.3h6.757a5.3,5.3,0,0,0,5.291-5.3V57.456h5.709a5.046,5.046,0,0,0,5.054-5.038V5.039A5.046,5.046,0,0,0,145.445,0H90.251a5.046,5.046,0,0,0-5.039,5.039V22.18a1.971,1.971,0,0,0,1.971,1.971" transform="translate(-73.214)" fill="#9b111e"/>
    <path id="Path_3393" data-name="Path 3393" d="M84.453,311.29l-.024.008a9.335,9.335,0,0,1,3.422,3.422,1.973,1.973,0,0,0,1.624.986h.087a1.973,1.973,0,0,0,1.616-.844,32.08,32.08,0,0,1,8.05-8.059,1.972,1.972,0,1,0-2.247-3.241,36.009,36.009,0,0,0-7.4,6.868,13.279,13.279,0,0,0-3.154-2.555,1.971,1.971,0,1,0-1.971,3.414" transform="translate(-71.705 -260.518)" fill="#fffdf5"/>
    <path id="Path_3394" data-name="Path 3394" d="M19.408,225.991a1.974,1.974,0,0,0,1.293,0c19.9-6.9,19.595-23.2,19.366-35.1-.047-1.253-.047-2.46-.047-3.619a1.972,1.972,0,0,0-1.971-1.971c-7.033,0-12.158-1.932-16.613-6.268a1.971,1.971,0,0,0-2.752,0C14.229,183.373,9.1,185.3,2.071,185.3A1.971,1.971,0,0,0,.1,187.276c0,1.159-.047,2.373-.047,3.619h0c-.23,11.9-.543,28.2,19.357,35.1m-15.343-35v-1.774a25.588,25.588,0,0,0,16.03-6.079,25.553,25.553,0,0,0,16.03,6.079v1.774c.221,11.717.489,24.988-16.07,31.059C3.513,215.96,3.765,202.69,4.065,190.989" transform="translate(0.001 -153.347)" fill="#9b111e"/>
    <path id="Path_3395" data-name="Path 3395" d="M318.492,163.77a7.1,7.1,0,1,0-7.1-7.1h.016a7.1,7.1,0,0,0,7.08,7.1m-3.138-7.1a1.3,1.3,0,1,1-.016,0Z" transform="translate(-267.551 -128.516)" fill="#9b111e"/>
  </g>
</svg>
