<svg id="i-2" xmlns="http://www.w3.org/2000/svg" xmlns:xlink="http://www.w3.org/1999/xlink" width="79.928" height="69.811" viewBox="0 0 79.928 69.811">
  <defs>
    <clipPath id="clip-path">
      <rect id="Rectangle_3496" data-name="Rectangle 3496" width="79.928" height="69.811" fill="none"/>
    </clipPath>
  </defs>
  <g id="Group_9195" data-name="Group 9195" clip-path="url(#clip-path)">
    <path id="Path_3396" data-name="Path 3396" d="M77.1,160.624h0Z" transform="translate(-64.295 -133.941)"/>
    <path id="Path_3397" data-name="Path 3397" d="M285.649,64.7h0Z" transform="translate(-238.197 -53.951)"/>
    <path id="Path_3398" data-name="Path 3398" d="M115.116,175.939h-4.873v-26.91a4.365,4.365,0,0,0-4.361-4.361h-5.348a4.364,4.364,0,0,0-4.361,4.361v26.91H87.2V135.117a4.365,4.365,0,0,0-4.361-4.361h-5.35a4.366,4.366,0,0,0-4.361,4.361v40.822H64.263v-26.91a4.364,4.364,0,0,0-4.361-4.361H54.554a4.366,4.366,0,0,0-4.361,4.361v26.91H45.346a1.454,1.454,0,0,0,0,2.907h69.77a1.454,1.454,0,0,0,0-2.907" transform="translate(-36.62 -109.035)" fill="#9b111e"/>
    <path id="Path_3399" data-name="Path 3399" d="M12.808,26.683h0C22.372,32.175,34.3,22.737,31.38,12.25l7.226-2.735a6.087,6.087,0,0,0,8.846,1.233h0L60.983,20.826a6.042,6.042,0,1,0,1.757-2.317L49.212,8.434A6.111,6.111,0,0,0,43.61,0,6.044,6.044,0,0,0,37.6,6.786l-7.239,2.74C21.84-5.528.017,6.184,7.666,21.546l-6.6,6.6a3.634,3.634,0,1,0,5.139,5.139l6.6-6.6h0" transform="translate(0 0)" fill="#fffdf5"/>
  </g>
</svg>
