<svg xmlns="http://www.w3.org/2000/svg" xmlns:xlink="http://www.w3.org/1999/xlink" width="232.901" height="52.042" viewBox="0 0 232.901 52.042">
  <defs>
    <clipPath id="clip-path">
      <rect id="Rectangle_516" data-name="Rectangle 516" width="232.901" height="52.042" fill="#fffdf5"/>
    </clipPath>
  </defs>
  <g id="Group_1531" data-name="Group 1531" clip-path="url(#clip-path)">
    <path id="Path_494" data-name="Path 494" d="M143,34.757q0-2.613-1.8-2.613a2.891,2.891,0,0,0-.742.07,5.308,5.308,0,0,1-.953.106,1.03,1.03,0,0,1-.777-.335,1.159,1.159,0,0,1-.318-.83q0-1.236,1.478-1.236.035,0,.527.035,5.278.353,4.927.353h.35l8.481-.247q.247,0,1.83-.106.562-.035,1.02-.035,1.83,0,1.83,1.624,0,.283-.1,1.8-.075,1.13-.076,2.083a16.988,16.988,0,0,0,.059,1.73,14.722,14.722,0,0,1,.118,1.518q0,1.342-1.271,1.342t-1.271-1.88V36.291q0-2.98-1.231-3.512a16.359,16.359,0,0,0-4.716-.39,21.3,21.3,0,0,0-2.956.108,1.962,1.962,0,0,0-1.514,2.152V38.18q0,1.413.627,1.624a3.391,3.391,0,0,0,.836.07h1.428q2.194,0,2.194-1.518a8.734,8.734,0,0,0-.088-1.095,9.307,9.307,0,0,1-.088-1.2q0-1.413,1.254-1.413t1.254,1.518q0,.283-.228,2.19a24.225,24.225,0,0,0-.2,2.86q0,.706.141,2.507.035.283.177,1.236a9.686,9.686,0,0,1,.106,1.236,1.124,1.124,0,0,1-1.271,1.271q-1.236,0-1.236-1.483a10.363,10.363,0,0,1,.088-1.13,10.367,10.367,0,0,0,.088-1.13q0-1.518-2.013-1.518h-1.589q-1.024,0-1.254.353a3.219,3.219,0,0,0-.229,1.519v2.19q0,.565.035,1.518.035,1.165.035,1.554.035,1.413.565,1.766a4.153,4.153,0,0,0,1.836.247h4.805a4.8,4.8,0,0,0,2.86-.618,2.829,2.829,0,0,0,.777-2.313q0-.53-.053-1.572t-.053-1.572q0-1.589,1.254-1.589,1.324,0,1.324,1.624,0,.636-.053,1.942t-.053,1.942q0,.494.053,1.465t.053,1.465a1.452,1.452,0,0,1-1.624,1.66q-.387,0-1.236-.081-.424-.043-1.554-.043.247,0-2.754-.081t-5.191-.078q-3.32,0-6.5.247a1.644,1.644,0,0,0-.318.035h-.211q-1.483,0-1.483-1.271a.984.984,0,0,1,1.1-1.13q.177,0,.953.07a2.813,2.813,0,0,0,.742.106q1.8,0,1.8-2.648Zm29.664,13.982v-2.26q.035-1.448,1.271-1.448t1.234,1.623q0,3.849-.982,5.369a4.834,4.834,0,0,1-4.384,2.048,4.435,4.435,0,0,1-4-1.8,8.349,8.349,0,0,1-.877-4.45V39.346q0-.742-.687-.742h-1.155a1.314,1.314,0,0,1-.957-.371,1.212,1.212,0,0,1-.379-.9,1.245,1.245,0,0,1,.371-.883,1.126,1.126,0,0,1,.83-.387h1.377q.6,0,.6-.671V31.754a1.2,1.2,0,0,1,1.377-1.342q1.271,0,1.271,1.342v3.78q0,.53.636.53h3.849q1.342,0,1.342,1.236,0,1.307-1.448,1.307H168.07q-.494,0-.494.742v8.687q0,3.708,2.471,3.708,2.507,0,2.616-3m9.817-17.9-.143,6.88a9.508,9.508,0,0,1,2.586-1.854,7.747,7.747,0,0,1,7.65,1.218,5.96,5.96,0,0,1,1.842,4.555v5.9q0,2.083.035,2.3.141,1.766.918,1.766a2.564,2.564,0,0,0,.812-.2,2.573,2.573,0,0,1,.565-.05q1.307,0,1.307,1.2t-1.695,1.2a12.2,12.2,0,0,1-1.342-.106,21.182,21.182,0,0,0-2.4-.177,10.7,10.7,0,0,0-1.413.07q-1.483.212-1.836.212a1.549,1.549,0,0,1-1.06-.371,1.19,1.19,0,0,1-.424-.936.988.988,0,0,1,.371-.777,1.287,1.287,0,0,1,.865-.318,2.969,2.969,0,0,1,.918.177,1.9,1.9,0,0,0,.6.106q1.06,0,1.095-2.3,0-.424.07-1.66V44.258q0-3.6-.709-4.838a3.787,3.787,0,0,0-3.615-1.836,4.549,4.549,0,0,0-4.076,1.907,7.856,7.856,0,0,0-.921,4.2v2.543a3,3,0,0,1-.141.706v.671q0,2.013.037,2.33.182,1.73,1.053,1.73a3.06,3.06,0,0,0,.816-.159,3.03,3.03,0,0,1,.781-.159,1.012,1.012,0,0,1,1.162,1.128q0,1.274-1.564,1.273-.5,0-1.494-.106a22.712,22.712,0,0,0-2.311-.141q-.6,0-1.671.106-1.422.141-1.814.141-1.458,0-1.458-1.31,0-1.091,1.367-1.091a1.742,1.742,0,0,1,.683.1,4.319,4.319,0,0,0,.863.149q.575,0,.773-1.077a32.32,32.32,0,0,0,.232-4.4V39.805a61.24,61.24,0,0,0-.212-6.692q-.212-1.395-.988-1.4a3.894,3.894,0,0,0-.742.106,3.947,3.947,0,0,1-.777.106q-1.2,0-1.2-1.13a1.07,1.07,0,0,1,.424-.847,1.548,1.548,0,0,1,1.024-.353q.177,0,1.2.106a13.929,13.929,0,0,0,1.448.07,6.146,6.146,0,0,0,.883-.088,6,6,0,0,1,.812-.088q.812,0,.812,1.17ZM215.5,43.2a4.3,4.3,0,0,1-.177,1.636q-.177.3-1.027.3H203.032a.986.986,0,0,0-.6.124.518.518,0,0,0-.142.408,6.4,6.4,0,0,0,1.593,4.437,5.275,5.275,0,0,0,6.815.927,3.875,3.875,0,0,0,1.682-2.154l.319-1.024a1.1,1.1,0,0,1,1.168-.847,1.172,1.172,0,0,1,1.31,1.342,5.109,5.109,0,0,1-2.33,4.08,8.49,8.49,0,0,1-5.3,1.782,7.455,7.455,0,0,1-5.9-2.491,9.772,9.772,0,0,1-2.19-6.692,10.281,10.281,0,0,1,2.33-6.992,7.663,7.663,0,0,1,6.074-2.684,7.3,7.3,0,0,1,5.473,2.217,7.748,7.748,0,0,1,2.154,5.63Zm-12.82-.89q0,.494.78.494h8.47q.744,0,.744-.494a4.381,4.381,0,0,0-1.417-3.249,4.625,4.625,0,0,0-3.331-1.377,5.354,5.354,0,0,0-3.615,1.43,4.2,4.2,0,0,0-1.63,3.2m20.764-5.349v.971a6.16,6.16,0,0,1,8.916-1.182,4.622,4.622,0,0,1,1.536,3.584,3.918,3.918,0,0,1-.777,2.525,2.5,2.5,0,0,1-2.048.971,2.019,2.019,0,0,1-1.377-.494,1.538,1.538,0,0,1-.565-1.2,1.414,1.414,0,0,1,.424-1.006,1.332,1.332,0,0,1,.988-.442,2.16,2.16,0,0,1,.459.106,1.758,1.758,0,0,0,.212-.777,2.128,2.128,0,0,0-.9-1.73,3.522,3.522,0,0,0-2.242-.706,3.569,3.569,0,0,0-3.673,2.472,13.988,13.988,0,0,0-.565,4.59v2.33q0,2.366.036,2.648.178,2.013,1.1,2.013a4.079,4.079,0,0,0,.962-.121,3.064,3.064,0,0,1,.679-.091,1,1,0,0,1,1.14,1.113q0,1.218-1.448,1.218h-.141a15.469,15.469,0,0,1-1.607-.124,15.469,15.469,0,0,0-1.607-.124q-1.413,0-2.225.07l-1.976.177q-1.448,0-1.448-1.236,0-1.095,1.354-1.095a2.971,2.971,0,0,1,.535.035l.535.106a3,3,0,0,0,.5.07q.891,0,.962-1.624v-1.8l-.106-8.016q-.106-2.083-1.06-2.083a4.675,4.675,0,0,0-.777.088,4.674,4.674,0,0,1-.777.088q-1.165,0-1.165-1.113,0-1.218,1.518-1.218a9.407,9.407,0,0,1,1.06.088,9.406,9.406,0,0,0,1.06.088,7.566,7.566,0,0,0,.918-.088,2.256,2.256,0,0,1,.671-.088q.918,0,.918,1.008m19.435-1.607a6.212,6.212,0,0,1,3.942,1.236V36.45q0-1.307,1.13-1.307a1.015,1.015,0,0,1,1.165,1.13q0,.212-.059,1.06a8.6,8.6,0,0,0-.118,1.413,12.391,12.391,0,0,0,.088,1.236,12.387,12.387,0,0,1,.088,1.236q0,1.342-1.148,1.342a1.027,1.027,0,0,1-1.148-1.13V40.265a2.261,2.261,0,0,0-1.224-1.818,5.061,5.061,0,0,0-2.785-.759,4.4,4.4,0,0,0-2.731.83,2.5,2.5,0,0,0-1.1,2.066q0,2.26,3.117,2.684l2.055.283q6.022.812,6.022,4.979a5.045,5.045,0,0,1-1.937,4.114,7.8,7.8,0,0,1-5.07,1.572,8.051,8.051,0,0,1-5.068-1.66v.672q0,1.271-1.2,1.271-1.307,0-1.307-1.448a18.065,18.065,0,0,0,.212-1.836,6.974,6.974,0,0,0,.07-.988,8.465,8.465,0,0,0-.141-1.589,6.608,6.608,0,0,1-.141-1.165q0-1.236,1.13-1.236.742,0,.936.353a5.446,5.446,0,0,1,.23,1.87,2.917,2.917,0,0,0,1.589,2.472,7.456,7.456,0,0,0,3.955.953,4.506,4.506,0,0,0,2.86-.883,2.713,2.713,0,0,0,1.13-2.225q0-2.4-3.814-2.792a15.207,15.207,0,0,1-5.544-1.43,3.81,3.81,0,0,1-1.907-3.655,4.944,4.944,0,0,1,1.865-4.008,7.4,7.4,0,0,1,4.858-1.535m20.221,6.6q0-1.413,1.766-1.624a2.749,2.749,0,0,0-1.188-1.942,4.451,4.451,0,0,0-2.605-.706,4.717,4.717,0,0,0-3.935,1.942,8.252,8.252,0,0,0-1.489,5.154,8.589,8.589,0,0,0,1.4,5.208,4.552,4.552,0,0,0,3.878,1.89A4.324,4.324,0,0,0,263.629,51a4.439,4.439,0,0,0,1.576-2.437q.354-1.236.425-1.413a1.232,1.232,0,0,1,1.135-.706,1.328,1.328,0,0,1,1.381,1.374,5.28,5.28,0,0,1-.565,2.121,7.364,7.364,0,0,1-1.342,2.048,7.064,7.064,0,0,1-5.4,2.226,7.318,7.318,0,0,1-5.809-2.543A9.818,9.818,0,0,1,252.822,45a10.334,10.334,0,0,1,2.276-7.009,7.618,7.618,0,0,1,6.056-2.631,7.161,7.161,0,0,1,4.7,1.536,4.832,4.832,0,0,1,1.872,3.9A3.2,3.2,0,0,1,267,42.949a2.329,2.329,0,0,1-1.854.847,2.1,2.1,0,0,1-1.465-.53,1.7,1.7,0,0,1-.583-1.308m22.918,12.112a3.263,3.263,0,0,1-3.565-2.507,6.354,6.354,0,0,1-5.652,2.65,6.961,6.961,0,0,1-4.573-1.413,4.647,4.647,0,0,1-1.713-3.78,4.582,4.582,0,0,1,2.507-4.308,6.57,6.57,0,0,1,1.642-.687q.687-.159,2.772-.406a10.624,10.624,0,0,0,3.865-.883,2.27,2.27,0,0,0,.9-2.083,2.792,2.792,0,0,0-1.006-2.276,4.291,4.291,0,0,0-2.807-.828,5.4,5.4,0,0,0-2.966.883q-.53.353-.53.742,0,.141.318.353a1.374,1.374,0,0,1,.494,1.2,1.5,1.5,0,0,1-.512,1.165,1.858,1.858,0,0,1-1.289.459,2.056,2.056,0,0,1-1.536-.636,2.145,2.145,0,0,1-.618-1.554,4.11,4.11,0,0,1,1.96-3.39,7.907,7.907,0,0,1,4.749-1.415q6.427,0,6.427,6.166v7.118a15.014,15.014,0,0,0,.07,2.008q.212,1.233,1.2,1.233,1.236,0,1.236-2.245V47.922q0-1.122,1.078-1.122,1.147,0,1.147,1.695v2.19q-.073,3.385-3.6,3.386Zm-3.955-7.027V44.537a4.517,4.517,0,0,1-1.635.988,16.358,16.358,0,0,1-3.077.494q-4.01.387-4.01,2.966a2.567,2.567,0,0,0,.971,2.119,4.1,4.1,0,0,0,2.631.777,5.2,5.2,0,0,0,3.725-1.288A4.765,4.765,0,0,0,282.059,47.044Zm14.09-10.01v1.006a6.834,6.834,0,0,1,5.65-2.684,7.132,7.132,0,0,1,3.6.971,5.076,5.076,0,0,1,2.3,2.419,8.377,8.377,0,0,1,.494,3.143V48.6q0,1.518.035,1.8.177,1.2.954,1.2a5.122,5.122,0,0,0,.83-.088,4.943,4.943,0,0,1,.724-.088,1.116,1.116,0,0,1,.795.318,1.03,1.03,0,0,1,.335.777,1.1,1.1,0,0,1-.424.883,1.548,1.548,0,0,1-1.024.353,15.009,15.009,0,0,1-1.624-.143,17.129,17.129,0,0,0-2.119-.141,13.477,13.477,0,0,0-1.518.07q-1.766.212-1.872.212-1.413,0-1.413-1.236,0-1.095,1.224-1.095a3.383,3.383,0,0,1,.648.07,6.038,6.038,0,0,0,.862.144q.864,0,.936-1.942v-6.64a12.477,12.477,0,0,0-.176-2.577,3.4,3.4,0,0,0-1.372-2.083,4.489,4.489,0,0,0-2.638-.812,4.373,4.373,0,0,0-4.045,2.013,9.517,9.517,0,0,0-.844,4.7v4.7a7,7,0,0,0,.212,2.119.777.777,0,0,0,.777.565,3.425,3.425,0,0,0,.777-.124,3.486,3.486,0,0,1,.812-.124q1.095,0,1.095,1.183,0,1.147-1.413,1.148-.283,0-1.836-.212a12.878,12.878,0,0,0-1.73-.106,18.307,18.307,0,0,0-1.976.141q-1.554.177-1.766.177-1.483,0-1.483-1.2a1.008,1.008,0,0,1,1.152-1.13,3.786,3.786,0,0,1,.665.106,4.449,4.449,0,0,0,.953.106q1.079,0,1.117-2.048V40.158a4.5,4.5,0,0,0-.306-1.642.84.84,0,0,0-.81-.442,3.775,3.775,0,0,0-.737.106,3.774,3.774,0,0,1-.737.106q-1.295,0-1.295-1.148,0-1.183,1.589-1.183a1.48,1.48,0,0,1,.353.035l1.307.141a4.918,4.918,0,0,0,.988-.088q.918-.088.953-.088,1.023,0,1.023,1.078" transform="translate(-78.962 -16.887)" fill="#fffdf5"/>
    <path id="Path_495" data-name="Path 495" d="M10.84,24.738a2.209,2.209,0,0,1,2.21-2.209h.01l3.68.012a2.212,2.212,0,0,1,2.212,2.212V38.669c.414-.123.945-.254,1.529-.391A1.844,1.844,0,0,0,21.9,36.484V19.224a2.213,2.213,0,0,1,2.212-2.213H27.8a2.213,2.213,0,0,1,2.212,2.212v16.02s.923-.374,1.822-.753a1.847,1.847,0,0,0,1.127-1.7v-19.1a2.213,2.213,0,0,1,2.212-2.212h3.687a2.212,2.212,0,0,1,2.21,2.212V29.42a43.244,43.244,0,0,0,9.007-8.454,3.714,3.714,0,0,0,.565-3.467A26.043,26.043,0,1,0,3.467,39.02a3.294,3.294,0,0,0,3.142,1.628c.7-.061,1.566-.148,2.6-.269a1.843,1.843,0,0,0,1.632-1.829V24.738" transform="translate(0 0)" fill="#fffdf5"/>
    <path id="Path_496" data-name="Path 496" d="M25.056,79.2A26.051,26.051,0,0,0,66.433,58.13c0-.6-.028-1.193-.068-1.783C56.846,70.544,39.271,77.181,25.056,79.2" transform="translate(-14.295 -32.146)" fill="#fffdf5"/>
  </g>
</svg>
