<svg xmlns="http://www.w3.org/2000/svg" xmlns:xlink="http://www.w3.org/1999/xlink" width="357.332" height="60.01" viewBox="0 0 357.332 60.01">
  <defs>
    <clipPath id="clip-path">
      <rect id="Rectangle_518" data-name="Rectangle 518" width="53.863" height="54.658" fill="#fffdf5"/>
    </clipPath>
  </defs>
  <g id="Group_1539" data-name="Group 1539" transform="translate(0 5)">
    <g id="Group_1536" data-name="Group 1536" transform="translate(0 0.352)">
      <g id="Group_1535" data-name="Group 1535" clip-path="url(#clip-path)">
        <path id="Path_509" data-name="Path 509" d="M46.826,32.66a2.879,2.879,0,0,1-2.935.2c-1.084-.612-1.668-2.048-1.668-4v-6c0-2.878-1.14-4.926-3.047-5.482-3.223-.943-5.63,3-6.559,4.49l-5.7,9.226V19.831c-.063-2.6-.908-4.152-2.505-4.616-1.056-.31-2.639-.183-4.18,2.167L7.488,37.839A22.515,22.515,0,0,1,4.926,27.325,22.192,22.192,0,0,1,26.917,4.968,22.222,22.222,0,0,1,48.944,27.325v.127c.12,2.386-.654,4.286-2.111,5.208Zm7.037-5.327v-.12A27.2,27.2,0,0,0,26.917,0,27.183,27.183,0,0,0,0,27.325,27.161,27.161,0,0,0,26.917,54.658a26.605,26.605,0,0,0,18.3-7.291,2.505,2.505,0,0,0,.127-3.519,2.414,2.414,0,0,0-3.41-.172l-.011.01a21.765,21.765,0,0,1-30.771-.812q-.3-.32-.594-.652L22.026,23.786v8.508c0,4.089,1.583,5.412,2.913,5.8s3.364.12,5.5-3.343L36.769,24.5c.2-.331.387-.612.556-.859v5.215c0,3.821,1.534,6.875,4.222,8.381a7.742,7.742,0,0,0,7.889-.317c2.956-1.921,4.567-5.4,4.4-9.585Z" fill="#fffdf5"/>
      </g>
    </g>
    <text id="CoinMarketCap" transform="translate(66.332 38)" fill="#fffdf5" font-size="40" font-family="SegoeUI-Bold, Segoe UI" font-weight="700"><tspan x="0" y="0">CoinMarketCap</tspan></text>
  </g>
</svg>
