<svg xmlns="http://www.w3.org/2000/svg" xmlns:xlink="http://www.w3.org/1999/xlink" width="201.04" height="53.406" viewBox="0 0 201.04 53.406">
  <defs>
    <clipPath id="clip-path">
      <rect id="Rectangle_517" data-name="Rectangle 517" width="201.04" height="53.406" fill="#fffdf5"/>
    </clipPath>
  </defs>
  <g id="Group_1533" data-name="Group 1533" clip-path="url(#clip-path)">
    <path id="Path_497" data-name="Path 497" d="M180.107,83.185a3.777,3.777,0,0,0-.2-.484,1.506,1.506,0,0,1,.2.484" transform="translate(-146.414 -67.306)" fill="#fffdf5"/>
    <path id="Path_498" data-name="Path 498" d="M388.5,86.13a4.428,4.428,0,0,0-4.617-3.686c-3.965,0-5.622,3.5-5.622,7.055s1.657,7.055,5.622,7.055c2.885,0,4.468-2.159,4.728-4.858h3.164a7.6,7.6,0,0,1-7.893,7.5c-5.547,0-8.879-4.412-8.879-9.7s3.313-9.7,8.879-9.7c4.17.019,7.465,2.327,7.855,6.329H388.5" transform="translate(-305.196 -64.946)" fill="#fffdf5"/>
    <path id="Path_499" data-name="Path 499" d="M475.4,114.656c0-4.1,2.457-7.055,6.776-7.055,4.3,0,6.776,2.96,6.776,7.055,0,4.132-2.457,7.074-6.776,7.074-4.319.019-6.776-2.941-6.776-7.074m10.573,0c0-2.308-1.173-4.728-3.816-4.728s-3.816,2.42-3.816,4.728c0,2.327,1.173,4.747,3.816,4.747,2.662,0,3.816-2.4,3.816-4.747" transform="translate(-386.907 -87.571)" fill="#fffdf5"/>
    <path id="Path_500" data-name="Path 500" d="M561.8,82.1h2.96v2.811H561.8Zm0,5.119h2.96v13.421H561.8Z" transform="translate(-457.224 -66.818)" fill="#fffdf5"/>
    <path id="Path_501" data-name="Path 501" d="M595,108.055h2.811v1.973l.056.056a4.814,4.814,0,0,1,4.17-2.383c2.9,0,4.747,1.564,4.747,4.561v9.214h-2.96v-8.433c-.056-2.1-.875-3.016-2.625-3.016a3.272,3.272,0,0,0-3.239,3.537v7.911H595Z" transform="translate(-484.244 -87.653)" fill="#fffdf5"/>
    <path id="Path_502" data-name="Path 502" d="M689.616,98.751H687.55l-.484-2.178a6.665,6.665,0,0,1-5.584,2.625c-5.547,0-8.879-4.412-8.879-9.7s3.313-9.7,8.879-9.7c4.039,0,7.446,2.159,7.93,6.329h-3.165c-.316-2.439-2.438-3.686-4.765-3.686-3.965,0-5.622,3.5-5.622,7.055s1.657,7.055,5.622,7.055c3.313.056,5.138-1.955,5.193-5.082h-4.933V89.015h7.893v9.736Z" transform="translate(-547.398 -64.946)" fill="#fffdf5"/>
    <path id="Path_503" data-name="Path 503" d="M780.243,115.438c0,2.1,1.135,3.965,3.611,3.965a3.111,3.111,0,0,0,3.276-2.234h2.811a5.884,5.884,0,0,1-6.068,4.561c-4.207,0-6.571-2.923-6.571-7.055,0-3.816,2.494-7.074,6.478-7.074,4.226,0,6.832,3.816,6.329,7.837Zm6.906-1.936a3.455,3.455,0,1,0-6.906,0Z" transform="translate(-632.609 -87.571)" fill="#fffdf5"/>
    <path id="Path_504" data-name="Path 504" d="M864.419,112.622a2.836,2.836,0,0,0-3.053-2.513c-1.526,0-3.686.8-3.686,4.877,0,2.234.987,4.6,3.555,4.6a3.17,3.17,0,0,0,3.183-3.053h2.941c-.54,3.481-2.7,5.4-6.143,5.4-4.207,0-6.515-2.978-6.515-6.925,0-4.039,2.2-7.2,6.608-7.2,3.109,0,5.752,1.564,6.05,4.858h-2.941Z" transform="translate(-695.601 -87.734)" fill="#fffdf5"/>
    <path id="Path_505" data-name="Path 505" d="M936.021,82.1h2.96V92.637l5.342-5.417h3.63l-5.138,4.933,5.622,8.488h-3.611l-4.1-6.515-1.768,1.713v4.8H936V82.1Z" transform="translate(-761.767 -66.818)" fill="#fffdf5"/>
    <path id="Path_506" data-name="Path 506" d="M1007.2,114.656c0-4.1,2.457-7.055,6.776-7.055,4.3,0,6.776,2.96,6.776,7.055,0,4.132-2.457,7.074-6.776,7.074-4.319.019-6.776-2.941-6.776-7.074m10.592,0c0-2.308-1.173-4.728-3.816-4.728s-3.816,2.42-3.816,4.728c0,2.327,1.173,4.747,3.816,4.747s3.816-2.4,3.816-4.747" transform="translate(-819.713 -87.571)" fill="#fffdf5"/>
    <path id="Path_507" data-name="Path 507" d="M26.582,0A26.7,26.7,0,1,0,53.406,26.582,26.709,26.709,0,0,0,26.582,0M23.195,25.409a4.784,4.784,0,1,1,4.784-4.784,4.783,4.783,0,0,1-4.784,4.784m3.816,5.156.019-.037.019-.037a8.51,8.51,0,0,0,4.468,1.229,21.186,21.186,0,0,0,4.71-.391A25.036,25.036,0,0,0,40.8,29.914a19.457,19.457,0,0,0,2.439-1.154.018.018,0,0,0,.019-.019c.484-.3.968-.614,1.433-.931.093-.074.2-.149.3-.223l.019.019.037.056a17.08,17.08,0,0,1-4.1,2.625,26.422,26.422,0,0,1-4.579,1.675,14.42,14.42,0,0,1-4.9.558,6.626,6.626,0,0,1-4.468-1.955m12.249-5.156A1.033,1.033,0,1,1,40.3,26.433a1.062,1.062,0,0,1-1.042-1.024M31.087,51.023C30.063,43.8,36.374,36.709,39.929,33.1c.8-.819,2.048-1.955,3.22-3.165,4.616-4.319,5.547-9.475-3.909-12.062-1.787-.521-3.648-1.247-5.529-1.992a3.777,3.777,0,0,0-.2-.484,5.357,5.357,0,0,0-1.173-1.284c-1.229-1.061-3.537-1.042-5.529-.558a13.839,13.839,0,0,0-6.459-.2c-9.14,2.513-10.61,6.981-10.964,12.36-.484,5.808-.763,10.126-2.96,15.078A24.7,24.7,0,1,1,31.087,51.023" transform="translate(0 0)" fill="#fffdf5"/>
    <path id="Path_508" data-name="Path 508" d="M113.322,96.352A3.36,3.36,0,1,1,109.971,93a3.349,3.349,0,0,1,3.351,3.351" transform="translate(-86.758 -75.689)" fill="#fffdf5"/>
  </g>
</svg>
