<svg id="Group_1540" data-name="Group 1540" xmlns="http://www.w3.org/2000/svg" xmlns:xlink="http://www.w3.org/1999/xlink" width="232.901" height="54.57" viewBox="0 0 232.901 54.57">
  <defs>
    <clipPath id="clip-path">
      <rect id="Rectangle_515" data-name="Rectangle 515" width="49.533" height="54.57" fill="#fffdf5"/>
    </clipPath>
    <clipPath id="clip-path-2">
      <rect id="Rectangle_519" data-name="Rectangle 519" width="166.973" height="20.564" fill="#fffdf5"/>
    </clipPath>
  </defs>
  <g id="Group_1530" data-name="Group 1530" transform="translate(0)">
    <g id="Group_1529" data-name="Group 1529" clip-path="url(#clip-path)">
      <path id="Path_492" data-name="Path 492" d="M48.608,21.722c-1.261-.83-2.057,1.095-2.455,1.925-1.56,3.086-3.185,6.105-4.712,9.191l-2.82,5.641a7.021,7.021,0,0,1-1.493,2.555c-1.095.83-3.949.3-5.276.3h-14c-1.36,0-4.778.6-5.674-.564a32.8,32.8,0,0,1-2.887-5.442c-1.56-3.119-3.219-6.238-4.778-9.357-.531-1.062-1.725-4.878-3.318-4.314-1.128.4-1.029,2.455-1.062,3.418a58.815,58.815,0,0,0,.2,10.253C1.591,46.409,7.066,57.093,16.091,63.862a47.443,47.443,0,0,0,6.371,4.114c.763.4,1.759,1.161,2.654.929,3.019-.763,6.3-3.484,8.693-5.375A41.758,41.758,0,0,0,49.239,34.961a59.408,59.408,0,0,0,.166-9.722c-.066-.929.1-2.92-.8-3.517M15.361,60.477A39.659,39.659,0,0,1,2.586,36.056c-.4-2.854-1.161-6.769-.332-9.556l2.721,5.143L9.753,41,22.1,65.222a27.186,27.186,0,0,1-6.736-4.745m9.556,4.878h-.365L13.4,43.455H36.066Zm22.5-36a46.908,46.908,0,0,1-.7,7.764c-1.825,11.182-8.66,23.127-19.311,28.1,1.029-3.484,3.484-6.868,5.11-10.087C37.293,45.645,43,36.321,47.082,26.5c.564.763.332,1.925.332,2.854" transform="translate(0 -14.378)" fill="#fffdf5"/>
      <path id="Path_493" data-name="Path 493" d="M22.035,6.978c1.029.6,3.517-.664,4.579-1,2.787-.83,5.574-1.659,8.328-2.522,1.261-.4,2.887-1.228,4.247-1.128a19.71,19.71,0,0,1,4.081,1.161c2.588.763,5.209,1.526,7.8,2.356,1.161.365,3.617,1.593,4.778,1.195,1.195-.4.73-1.725-.166-2.09-3.55-1.46-7.5-2.19-11.149-3.384-1.593-.5-4.015-1.692-5.674-1.56a26.559,26.559,0,0,0-4.977,1.427c-3.053,1-6.139,1.925-9.224,2.82-.7.2-4.911,1.427-2.621,2.721" transform="translate(-14.273 0)" fill="#fffdf5"/>
    </g>
  </g>
  <g id="Group_1538" data-name="Group 1538" transform="translate(65.928 13.861)">
    <g id="Group_1537" data-name="Group 1537" transform="translate(0 0)" clip-path="url(#clip-path-2)">
      <path id="Path_510" data-name="Path 510" d="M1,19.556a3.838,3.838,0,0,0,1.114.768,2.554,2.554,0,0,0,1.306.231h17.02V18.249H3.419a1.24,1.24,0,0,1-.807-.307,1.24,1.24,0,0,1-.307-.807V3.458a1.634,1.634,0,0,1,.077-.423,1.09,1.09,0,0,1,.231-.346,2.111,2.111,0,0,1,.346-.269.827.827,0,0,1,.423-.077H20.439V.038H3.419A3.063,3.063,0,0,0,2.113.307,3.121,3.121,0,0,0,1,1.037a3.121,3.121,0,0,0-.73,1.114A3.776,3.776,0,0,0,0,3.458V17.135a3.741,3.741,0,0,0,.231,1.306A3.838,3.838,0,0,0,1,19.556M33.656.038V20.555H52.4V18.249H36v-6.8H49.177V9.106H36v-6.8H52.4V0H33.656ZM65.583,20.555V.077h17.1a3.533,3.533,0,0,1,2.42,1,3.368,3.368,0,0,1,1,2.42V9.49A3.063,3.063,0,0,1,85.83,10.8a3.265,3.265,0,0,1-1.844,1.844,3.031,3.031,0,0,1-1.306.231h-3.15l6.455,7.607v.038H82.948l-6.416-7.646-8.644-.038v7.646H65.583ZM69,10.6H82.679a1.634,1.634,0,0,0,.423-.077,1.09,1.09,0,0,0,.346-.231.907.907,0,0,0,.231-.346,1.381,1.381,0,0,0,.077-.423V3.5a1.634,1.634,0,0,0-.077-.423,1.09,1.09,0,0,0-.231-.346,1.2,1.2,0,0,0-.346-.269.76.76,0,0,0-.423-.077H69a1.381,1.381,0,0,0-.423.077.837.837,0,0,0-.346.269A.907.907,0,0,0,68,3.074a1.381,1.381,0,0,0-.077.423V9.49A1.634,1.634,0,0,0,68,9.912a.691.691,0,0,0,.231.346A.967.967,0,0,0,69,10.6m38.381-8.26V20.555h2.305V2.344h9.105V.038H98.278V2.344ZM130.973.038h2.344V20.555h-2.344Zm16.405,0V20.555h2.344V11.449h6.608l7.646,9.106h3v-.038L158.367,10.3,166.934.077V.038h-2.958L156.33,9.144h-6.608V.038Z" transform="translate(0 0)" fill="#fffdf5"/>
    </g>
  </g>
</svg>
