<svg xmlns="http://www.w3.org/2000/svg" width="194" height="194" viewBox="0 0 194 194">
  <g id="Group_9211" data-name="Group 9211" transform="translate(-730 -3020)">
    <g id="Ellipse_3" data-name="Ellipse 3" transform="translate(730 3020)" fill="#2d0207" stroke="#9b111e" stroke-width="1">
      <circle cx="97" cy="97" r="97" stroke="none"/>
      <circle cx="97" cy="97" r="96.5" fill="none"/>
    </g>
    <g id="Group_9206" data-name="Group 9206" transform="translate(2031.961 150.009)">
      <path id="Path_3417" data-name="Path 3417" d="M468.923,0A64.1,64.1,0,0,1,533.11,64.761c-.152,35.764-29.586,63.947-64.7,63.751a64.353,64.353,0,0,1-63.79-64.577C404.651,28.674,433.485,0,468.923,0m-.045,5.745a58.636,58.636,0,0,0-58.471,58.829c.138,31.653,26.328,57.944,57.894,58.136a58.484,58.484,0,1,0,.577-116.965" transform="translate(-1673.585 2902.991)" fill="#9b111e"/>
      <path id="Path_3418" data-name="Path 3418" d="M470.355,7.214a58.484,58.484,0,1,1-.577,116.965c-31.567-.193-57.757-26.483-57.895-58.136A58.636,58.636,0,0,1,470.355,7.214m-54.9,58.462A54.9,54.9,0,1,0,471.144,10.82a55.034,55.034,0,0,0-55.689,54.856" transform="translate(-1675.063 2901.522)" fill="#ffa7b0"/>
      <path id="Path_3419" data-name="Path 3419" d="M416.368,66.6a54.9,54.9,0,1,1,54.015,54.932A54.986,54.986,0,0,1,416.368,66.6m53.848-.168a14.354,14.354,0,0,1-2.958,8.532c-4.132,5.595-11.277,7.663-17.093,4.945A14.555,14.555,0,0,1,441.9,63.192a14.348,14.348,0,0,1,3.706-6.6c2.841-2.971,3.158-6.154,1.026-9.69a7.379,7.379,0,0,0-8.476-3.5c-5.157,1.511-8.423,8.223-3.51,13.228a13.979,13.979,0,0,1,2.181,17.152,21.167,21.167,0,0,1-2.483,3.172,7.365,7.365,0,0,0-1.918,6.878c1.2,5.172,8.085,9.016,13.269,3.844a14.223,14.223,0,0,1,19.958-.079c1.89,1.837,4.062,2.906,6.728,2.413a8,8,0,0,0,6.465-5.673c.976-2.951.054-5.5-2.075-7.685a14.258,14.258,0,0,1,.069-20.124,7.044,7.044,0,0,0,2.093-6.992c-1.223-4.992-6-7.691-10.407-5.853-4.658,1.942-7.414,8.159-2.769,12.846a14.033,14.033,0,0,1,4.456,9.9m40.1-16.139a7.283,7.283,0,0,0-4.305-6.347,7.429,7.429,0,0,0-8.14.735,7.759,7.759,0,0,0-.789,11.784,14.021,14.021,0,0,1,4.035,11.565,14.242,14.242,0,0,1-4.167,8.65,7.757,7.757,0,0,0,6.978,13.03,7.341,7.341,0,0,0,5.933-5.063,7.425,7.425,0,0,0-1.667-7.906,14.881,14.881,0,0,1-3.434-5.326,13.945,13.945,0,0,1,3.137-14.8,8.5,8.5,0,0,0,2.419-6.318M494.757,66.6A7.784,7.784,0,1,0,487,74.392a7.754,7.754,0,0,0,7.754-7.789" transform="translate(-1675.976 2900.601)" fill="#9b111e"/>
      <path id="Path_3420" data-name="Path 3420" d="M474.269,74.449a14.03,14.03,0,0,0-4.457-9.9c-4.645-4.687-1.889-10.9,2.769-12.846,4.41-1.838,9.184.861,10.407,5.853A7.042,7.042,0,0,1,480.9,64.55a14.258,14.258,0,0,0-.069,20.124c2.129,2.184,3.05,4.735,2.075,7.686a8,8,0,0,1-6.465,5.673c-2.666.492-4.838-.576-6.728-2.413a14.221,14.221,0,0,0-19.958.079c-5.184,5.172-12.064,1.328-13.269-3.845a7.366,7.366,0,0,1,1.918-6.877,21.091,21.091,0,0,0,2.483-3.172A13.979,13.979,0,0,0,438.7,64.651c-4.913-5-1.647-11.716,3.51-13.227a7.378,7.378,0,0,1,8.476,3.5c2.133,3.538,1.815,6.719-1.026,9.691a14.345,14.345,0,0,0-3.706,6.6,14.556,14.556,0,0,0,8.262,16.713c5.816,2.718,12.961.649,17.093-4.945a14.353,14.353,0,0,0,2.958-8.532" transform="translate(-1680.029 2892.58)" fill="#ffa7b0"/>
      <path id="Path_3421" data-name="Path 3421" d="M530.354,58.3a8.5,8.5,0,0,1-2.419,6.318,13.944,13.944,0,0,0-3.136,14.8,14.866,14.866,0,0,0,3.433,5.326,7.426,7.426,0,0,1,1.668,7.906,7.343,7.343,0,0,1-5.933,5.063,7.757,7.757,0,0,1-6.979-13.03,14.237,14.237,0,0,0,4.167-8.651,14.02,14.02,0,0,0-4.035-11.564,7.759,7.759,0,0,1,.789-11.784,7.428,7.428,0,0,1,8.14-.735,7.281,7.281,0,0,1,4.305,6.347" transform="translate(-1696.016 2892.592)" fill="#ffa7b0"/>
      <path id="Path_3422" data-name="Path 3422" d="M510.82,78.642a7.784,7.784,0,0,1-15.568.032,7.784,7.784,0,1,1,15.568-.032" transform="translate(-1692.039 2888.561)" fill="#ffa7b0"/>
    </g>
  </g>
</svg>
