<svg id="Layer_1" data-name="Layer 1" xmlns="http://www.w3.org/2000/svg" xmlns:xlink="http://www.w3.org/1999/xlink" viewBox="0 0 128.26 38.29"><defs><style>.cls-1{fill:none;}.cls-2{clip-path:url(#clip-path);}.cls-3{fill:#fff;}.cls-4{fill:#9b111e;}</style><clipPath id="clip-path"><rect class="cls-1" width="128.26" height="38.29"/></clipPath></defs><g class="cls-2"><g id="Group_1545" data-name="Group 1545"><path id="Path_511" data-name="Path 511" class="cls-3" d="M108.7,38.22H4.8c-3.6,0-5.87-4.08-4.13-7.4L15.42,2.65A4.7,4.7,0,0,1,19.56.08h103.9c3.6,0,5.88,4.07,4.13,7.4L112.84,35.64a4.69,4.69,0,0,1-4.14,2.58"/><path id="Path_512" data-name="Path 512" class="cls-1" d="M108.7,38.22H4.8c-3.6,0-5.87-4.08-4.13-7.4L15.42,2.65A4.7,4.7,0,0,1,19.56.08h103.9c3.6,0,5.88,4.07,4.13,7.4L112.84,35.64A4.69,4.69,0,0,1,108.7,38.22Z"/></g></g><path class="cls-4" d="M17.29,20.25c0-6.81,6.12-11.58,13.17-11.58C36.88,8.67,40.85,11.58,41,16l-7.34,1.54c-.19-1.81-1.4-2.91-3.54-2.91a5,5,0,0,0-5,5.07c0,2.24,1.73,3.56,4.35,3.56a5.5,5.5,0,0,0,5.37-3.51l7.07,1c-1.46,5.1-6.86,8.47-13,8.47C21.79,29.18,17.29,25.83,17.29,20.25Z"/><path class="cls-4" d="M42.37,28.64,45.45,9.21h7.82l-2.1,13.36h8.91l-1,6.07Z"/><path class="cls-4" d="M61,28.64,64.08,9.21h7.8L68.8,28.64Z"/><path class="cls-4" d="M71.5,28.64,74.58,9.21H92.39l-.94,5.94h-10l-.38,2.48h8.37l-.81,5H80.27l-.94,6Z"/><path class="cls-4" d="M91.16,28.64,94.23,9.21h17.82l-1,5.94h-10l-.38,2.48h8.37l-.81,5H99.93l-1,6Z"/></svg>