<svg id="refresh" xmlns="http://www.w3.org/2000/svg" xmlns:xlink="http://www.w3.org/1999/xlink" width="15.991" height="17.99" viewBox="0 0 15.991 17.99">
  <defs>
    <clipPath id="clip-path">
      <rect id="Rectangle_3512" data-name="Rectangle 3512" width="15.991" height="17.99" fill="#9b111e"/>
    </clipPath>
  </defs>
  <g id="Group_9217" data-name="Group 9217" clip-path="url(#clip-path)">
    <path id="Path_3449" data-name="Path 3449" d="M8.006,6.274V4.7A5.39,5.39,0,0,0,6.1,15.109a1.349,1.349,0,0,1,.773,1.735,1.332,1.332,0,0,1-1.487.847,1.3,1.3,0,0,1-.232-.065A8.076,8.076,0,0,1,8.007,2.021V.714A.755.755,0,0,1,9.273.2l3.072,2.779a.691.691,0,0,1,0,1.035L9.273,6.792a.755.755,0,0,1-1.266-.518m1.762,8.878a4.925,4.925,0,0,1-.608.178,1.345,1.345,0,1,0,.575,2.627,7.941,7.941,0,0,0,.924-.269,1.352,1.352,0,0,0,.811-1.719,1.33,1.33,0,0,0-1.7-.818m2.65-2.07c-.057.086-.116.17-.179.252a1.354,1.354,0,0,0,.243,1.887,1.326,1.326,0,0,0,1.87-.247c.095-.126.188-.256.277-.389a1.355,1.355,0,0,0-.36-1.868,1.328,1.328,0,0,0-1.851.365m2.275-4.128a1.361,1.361,0,0,0-1.368,1.336,1.327,1.327,0,0,0,1.083,1.344,1.212,1.212,0,0,0,.21.022,1.35,1.35,0,0,0,1.371-1.317s0-.029,0-.031a1.316,1.316,0,0,0-1.3-1.354" transform="translate(0.001 0)" fill="#9b111e" fill-rule="evenodd"/>
  </g>
</svg>
