<svg xmlns="http://www.w3.org/2000/svg" width="37.087" height="37.086" viewBox="0 0 37.087 37.086">
  <g id="s-4" transform="translate(-176.175)">
    <path id="Path_3409" data-name="Path 3409" d="M213.262,18.543A18.543,18.543,0,1,1,194.719,0a18.543,18.543,0,0,1,18.543,18.543" fill="#9b111e" fill-rule="evenodd"/>
    <path id="Path_3410" data-name="Path 3410" d="M199.706,10.237c.049-.073.093-.144.141-.212a1.607,1.607,0,0,1,1.88-.584,1.614,1.614,0,0,1-.332,3.114,1.6,1.6,0,0,1-1.823-1.308c-.02-.1-.014-.207-.168-.239-1.058-.218-2.113-.448-3.194-.68-.342,1.6-.683,3.191-1.027,4.8a11.386,11.386,0,0,1,6.014,1.916,2.5,2.5,0,0,1,1.031-.551,2.27,2.27,0,0,1,1.636,4.19c-.1.057-.158.107-.142.236a4.59,4.59,0,0,1-.894,3.315,7.649,7.649,0,0,1-3.226,2.519,11.444,11.444,0,0,1-3.746.943,12.243,12.243,0,0,1-5.334-.673,8.046,8.046,0,0,1-3.886-2.767,4.517,4.517,0,0,1-.939-3.017.672.672,0,0,0-.35-.716,2.195,2.195,0,0,1-.833-2.494,2.261,2.261,0,0,1,2.131-1.585,2.22,2.22,0,0,1,1.472.519.182.182,0,0,0,.265.014,10.474,10.474,0,0,1,4.449-1.679c.454-.067.914-.1,1.372-.139.131-.011.173-.067.2-.184q.542-2.563,1.088-5.126c.072-.341.241-.454.588-.382.816.171,1.632.347,2.448.521l1.182.248m-8.57,11.646a1.584,1.584,0,0,0,1.615-1.588,1.59,1.59,0,1,0-3.18,0,1.566,1.566,0,0,0,1.565,1.59m5.526-1.582a1.592,1.592,0,0,0,1.578,1.611,1.622,1.622,0,0,0,1.6-1.581,1.588,1.588,0,0,0-1.569-1.6,1.568,1.568,0,0,0-1.611,1.568m-1.975,5.432a8.213,8.213,0,0,0,2.288-.317,3.623,3.623,0,0,0,1.519-.83.419.419,0,0,0,.03-.609.4.4,0,0,0-.575.019,2.873,2.873,0,0,1-1.13.622,7.12,7.12,0,0,1-3.265.217,3.887,3.887,0,0,1-2.117-.884.383.383,0,0,0-.542.05.372.372,0,0,0,.018.542,4.538,4.538,0,0,0,.789.557,6.815,6.815,0,0,0,2.985.633" fill="#fff"/>
  </g>
</svg>
