<svg xmlns="http://www.w3.org/2000/svg" width="37.087" height="37.086" viewBox="0 0 37.087 37.086">
  <g id="s-5" transform="translate(-234.9)">
    <path id="Path_3411" data-name="Path 3411" d="M271.987,18.543A18.544,18.544,0,1,1,253.444,0a18.543,18.543,0,0,1,18.543,18.543" fill="#9b111e" fill-rule="evenodd"/>
    <path id="Path_3412" data-name="Path 3412" d="M248.145,29.826c-.022-.245-.047-.4-.047-.552-.005-.86.016-1.721-.012-2.58a.724.724,0,0,1,.493-.767c1.762-.841,3.514-1.7,5.269-2.558a1.469,1.469,0,0,0,.158-.126c-.189-.112-.347-.224-.519-.306-1.684-.8-3.375-1.592-5.051-2.411a.692.692,0,0,1-.327-.493c-.049-1.018-.058-2.039-.071-3.058,0-.344.19-.3.407-.183q1.32.681,2.643,1.359c2.345,1.209,4.684,2.431,7.04,3.616a1.133,1.133,0,0,1,.755,1.2c-.068,1.511.176,1.155-1.122,1.835q-3.543,1.859-7.085,3.719c-.67.352-1.335.712-2,1.065-.139.073-.287.13-.526.236" fill="#fff"/>
    <path id="Path_3413" data-name="Path 3413" d="M258.8,7.355c0,.536,0,1.072,0,1.608,0,.408-.008.818.029,1.223.062.693.036.738-.587,1.03-1.819.852-3.633,1.716-5.555,2.625.415.207.751.382,1.093.543,1.583.744,3.17,1.479,4.747,2.235a.6.6,0,0,1,.322.4c.027,1.064.016,2.128.012,3.192,0,.051-.041.1-.1.228-.481-.241-.946-.467-1.406-.7-2.93-1.506-5.854-3.023-8.792-4.514a.87.87,0,0,1-.565-.9c.023-1.487.011-1.476,1.32-2.155q4.095-2.122,8.179-4.268c.393-.2.779-.423,1.169-.635l.128.094" fill="#fff"/>
  </g>
</svg>
