<svg xmlns="http://www.w3.org/2000/svg" width="37.087" height="37.086" viewBox="0 0 37.087 37.086">
  <g id="s-6" transform="translate(-293.625)">
    <path id="Path_3405" data-name="Path 3405" d="M330.712,18.543A18.544,18.544,0,1,1,312.169,0a18.543,18.543,0,0,1,18.543,18.543" fill="#9b111e" fill-rule="evenodd"/>
    <path id="Path_3406" data-name="Path 3406" d="M306.685,11.041a7.144,7.144,0,1,1-7.1,7.144,7.12,7.12,0,0,1,7.1-7.144m11.331.418c1.959,0,3.548,3.011,3.548,6.726s-1.588,6.726-3.548,6.726-3.547-3.012-3.547-6.726,1.588-6.726,3.547-6.726m5.484.7c.689,0,1.248,2.7,1.248,6.025s-.559,6.025-1.248,6.025-1.247-2.7-1.247-6.025.558-6.025,1.247-6.025" fill="#fff"/>
  </g>
</svg>
