<svg xmlns="http://www.w3.org/2000/svg" width="37.087" height="36.779" viewBox="0 0 37.087 36.779">
  <g id="s-7" transform="translate(-877.35 -4419.151)">
    <path id="Path_3468" data-name="Path 3468" d="M352.375,19.89c0-.07-.02-.14-.02-.21V19.5c0-9.63,8.3-17.44,18.54-17.44,10.11,0,18.33,7.61,18.53,17.07v.12l-6.12,13.2-.18.15a18.628,18.628,0,0,1-7.09,3.65,19.738,19.738,0,0,1-5.14.68,19.173,19.173,0,0,1-5.12-.68,18.717,18.717,0,0,1-7.59-4.06.188.188,0,0,1-.07-.06Z" transform="translate(525 4419)" fill="#fff" fill-rule="evenodd"/>
    <path id="s-7-2" data-name="s-7" d="M352.35,17.507c.093-.677.173-1.356.282-2.031A17.7,17.7,0,0,1,355.591,8.2,18.442,18.442,0,0,1,372.751.244a17.948,17.948,0,0,1,9.19,3.551,18.47,18.47,0,0,1,7.309,17.448,18.373,18.373,0,0,1-7.413,12.424,17.263,17.263,0,0,1-4.956,2.569.938.938,0,0,1-1.373-.974c-.007-1.606,0-3.211,0-4.816a5.38,5.38,0,0,0-.4-2.335,13.868,13.868,0,0,0-.737-1.232c.676-.126,1.412-.219,2.125-.4a7.774,7.774,0,0,0,4.726-2.983,8.721,8.721,0,0,0,1.39-4.028,10.631,10.631,0,0,0-.044-3.278A6.724,6.724,0,0,0,381,12.976a.448.448,0,0,1-.1-.511,6.325,6.325,0,0,0-.238-4.486.42.42,0,0,0-.295-.19,3.2,3.2,0,0,0-1.82.357c-.935.441-1.839.948-2.765,1.409a.9.9,0,0,1-.566.09,17.544,17.544,0,0,0-8.665,0,.8.8,0,0,1-.563-.1,13.342,13.342,0,0,0-3.772-1.7c-.024-.007-.046-.015-.07-.021-.865-.182-1.018-.084-1.267.766a6.294,6.294,0,0,0,.007,3.946.45.45,0,0,1-.071.375,7.672,7.672,0,0,0-1.7,6.121,10.581,10.581,0,0,0,1.029,3.778,6.6,6.6,0,0,0,3.958,3.292,29.266,29.266,0,0,0,3.158.738c.055.012.112.019.122.02-.27.492-.548.975-.8,1.473a1.36,1.36,0,0,0-.158.55.657.657,0,0,1-.575.664,4.164,4.164,0,0,1-3.462-.166,4.08,4.08,0,0,1-1.376-1.46,3.923,3.923,0,0,0-2.3-1.875,3.605,3.605,0,0,0-1.2-.058c-.244.015-.324.214-.159.42a2.25,2.25,0,0,0,.546.566,5.03,5.03,0,0,1,2,2.5,4.344,4.344,0,0,0,.981,1.582,4.183,4.183,0,0,0,2.725,1.01c.872.04,1.748.008,2.68.008,0,.525,0,1.138,0,1.75,0,.47.017.941.016,1.413a.965.965,0,0,1-1.395,1.008,17.94,17.94,0,0,1-7.173-4.481,18.757,18.757,0,0,1-4.381-6.993,18.433,18.433,0,0,1-.949-4.662c-.011-.142-.038-.282-.057-.423Z" transform="translate(525 4419)" fill="#9b111e"/>
  </g>
</svg>
