<svg id="Group_9276" data-name="Group 9276" xmlns="http://www.w3.org/2000/svg" xmlns:xlink="http://www.w3.org/1999/xlink" width="99.147" height="61.759" viewBox="0 0 99.147 61.759">
  <defs>
    <clipPath id="clip-path">
      <rect id="Rectangle_3540" data-name="Rectangle 3540" width="99.147" height="61.759" fill="none"/>
    </clipPath>
  </defs>
  <g id="Group_9275" data-name="Group 9275" clip-path="url(#clip-path)">
    <path id="Path_3534" data-name="Path 3534" d="M104.58,23.893a13.536,13.536,0,0,1-8.26-8.551L40.641,23.878v.015Z" transform="translate(-25.606 -9.666)" fill="#fff"/>
    <path id="Path_3535" data-name="Path 3535" d="M5.33,21.03a6.813,6.813,0,0,1,6.805-6.8h2.9v-.015L70.713,5.675a13.536,13.536,0,0,0,8.26,8.551h6.9a6.8,6.8,0,0,1,1.883.27L86.421,5.775a6.815,6.815,0,0,0-7.758-5.7L5.773,11.253A6.815,6.815,0,0,0,.079,19.011L5.168,52.2a6.981,6.981,0,0,0,.163.761Z" transform="translate(0 0)" fill="#ffa7b0"/>
    <path id="Path_3536" data-name="Path 3536" d="M85.079,86.15a3.285,3.285,0,0,1-3.526-2.972V81.915a3.285,3.285,0,0,1,3.526-2.972,3.285,3.285,0,0,1-3.526-2.972V74.708a3.285,3.285,0,0,1,3.526-2.974H104.8v-10.4A13.527,13.527,0,0,1,93.617,50.151H37.289A13.527,13.527,0,0,1,26.1,61.335V77.5A13.528,13.528,0,0,1,37.289,88.687H81.594a3.39,3.39,0,0,1,3.485-2.537" transform="translate(-16.447 -31.598)" fill="#ffa7b0"/>
    <path id="Path_3537" data-name="Path 3537" d="M122.075,77.052a14.785,14.785,0,1,1-14.784-14.786,14.784,14.784,0,0,1,14.784,14.786" transform="translate(-58.283 -39.231)" fill="#9b111e"/>
    <path id="Path_3538" data-name="Path 3538" d="M76.065,85.645a3.575,3.575,0,0,1-.385-.2l-.044-.027c-.105-.065-.205-.135-.3-.209l-.053-.041a3.108,3.108,0,0,1-.55-.565c-.018-.023-.035-.047-.051-.071a2.716,2.716,0,0,1-.171-.273.636.636,0,0,1-.032-.056,2.576,2.576,0,0,1-.148-.341c-.007-.026-.015-.053-.023-.078a2.36,2.36,0,0,1-.073-.289c-.007-.034-.014-.067-.018-.1a2.619,2.619,0,0,1-.032-.377V81.754c0-.079.006-.158.014-.238s.017-.131.027-.2H29.92A13.528,13.528,0,0,0,18.735,70.133V53.966A13.527,13.527,0,0,0,29.92,42.782H86.249A13.527,13.527,0,0,0,97.432,53.966v10.4h4.328V45.26a6.813,6.813,0,0,0-6.805-6.8H21.214a6.813,6.813,0,0,0-6.805,6.8V78.839a6.813,6.813,0,0,0,6.805,6.805H76.065Z" transform="translate(-9.078 -24.229)" fill="#9b111e"/>
    <path id="Path_3539" data-name="Path 3539" d="M120.452,94.915V93.081a10.907,10.907,0,0,1-6.178-2.738l1.834-2.185a8.718,8.718,0,0,0,4.345,2.185V85.472a10.265,10.265,0,0,1-4.156-1.783,4.031,4.031,0,0,1-1.32-3.278,4.581,4.581,0,0,1,1.52-3.553,6.144,6.144,0,0,1,3.955-1.507V74.1h1.607v1.281a10.488,10.488,0,0,1,5.224,1.883l-1.633,2.311a8.111,8.111,0,0,0-3.591-1.458v4.721h.076a10.218,10.218,0,0,1,4.244,1.833,4.165,4.165,0,0,1,1.356,3.354,4.556,4.556,0,0,1-1.557,3.578,6.469,6.469,0,0,1-4.119,1.506v1.809ZM118.683,78.7a1.8,1.8,0,0,0-.641,1.406,1.77,1.77,0,0,0,.5,1.33,5.061,5.061,0,0,0,1.909.943V78.037a3.01,3.01,0,0,0-1.77.666m5.285,11.012a1.936,1.936,0,0,0,.152-2.849,5.469,5.469,0,0,0-2.061-.968v4.52a3.488,3.488,0,0,0,1.908-.7" transform="translate(-71.999 -46.685)" fill="#fff"/>
    <path id="Path_3540" data-name="Path 3540" d="M175.989,151.7v-1.263a3.285,3.285,0,0,1,3.526-2.972H206.5a3.285,3.285,0,0,1,3.526,2.972V151.7a3.285,3.285,0,0,1-3.526,2.972H179.515a3.285,3.285,0,0,1-3.526-2.972" transform="translate(-110.883 -92.909)" fill="#ffbe1b"/>
    <path id="Path_3541" data-name="Path 3541" d="M175.989,132.214v-1.263a3.285,3.285,0,0,1,3.526-2.972H206.5a3.285,3.285,0,0,1,3.526,2.972v1.263a3.285,3.285,0,0,1-3.526,2.972H179.515a3.285,3.285,0,0,1-3.526-2.972" transform="translate(-110.883 -80.634)" fill="#ffca45"/>
    <path id="Path_3542" data-name="Path 3542" d="M175.989,112.73v-1.263a3.285,3.285,0,0,1,3.526-2.974H206.5a3.285,3.285,0,0,1,3.526,2.974v1.263A3.285,3.285,0,0,1,206.5,115.7H179.515a3.285,3.285,0,0,1-3.526-2.972" transform="translate(-110.883 -68.357)" fill="#ffe37b"/>
  </g>
</svg>
