<svg xmlns="http://www.w3.org/2000/svg" width="194" height="194" viewBox="0 0 194 194">
  <g id="Group_9209" data-name="Group 9209" transform="translate(-169 -3020)">
    <g id="Ellipse_1" data-name="Ellipse 1" transform="translate(169 3020)" fill="#2d0207" stroke="#9b111e" stroke-width="1">
      <circle cx="97" cy="97" r="97" stroke="none"/>
      <circle cx="97" cy="97" r="96.5" fill="none"/>
    </g>
    <g id="Group_9205" data-name="Group 9205" transform="translate(209 3051)">
      <path id="Path_3423" data-name="Path 3423" d="M16.952,29.949c.347.523.7,1.045,1.04,1.57q7.228,11.065,14.459,22.129a10.861,10.861,0,0,0,.962,1.3,4.569,4.569,0,0,0,4.694,1.623,12.339,12.339,0,0,0,3.154-1.154c1.742-.982,1.927-2.255.673-3.818q-4.9-6.1-9.84-12.173Q16.158,19.936.2.464A.7.7,0,0,1,0,0C.19.193.385.381.567.581Q12.479,13.618,24.385,26.662q10.483,11.522,20.9,23.1c.6.664,1.4,1.417,1.5,2.2a6.636,6.636,0,0,1-1.35,5.153,10.66,10.66,0,0,1-6.174,3.662c-1.3.29-2.623.474-3.926.751A3.972,3.972,0,0,0,32.06,64.9c-.289,1.535-.452,3.1-.59,4.654a25.826,25.826,0,0,1-2.464,8.37,45.321,45.321,0,0,0-2.346,5.922A7.235,7.235,0,0,0,28.29,90.9a39.139,39.139,0,0,0,4.217,3.689c1.06.891,2.183,1.709,3.229,2.616,2.685,2.326,2.2,7.377.3,9.425a21.015,21.015,0,0,1-8.546,5.468c-2.287.813-4.672,1.355-7.017,2.005-.59.164-.87.052-1.1-.682a20.976,20.976,0,0,0-1.665-3.453c-1.224-2.279-2.658-4.464-3.687-6.826A17.044,17.044,0,0,1,13.134,92.5a12.74,12.74,0,0,1,2.454-4.93c1.941-2.56,3.933-5.08,5.856-7.652a26.252,26.252,0,0,0,5.119-13.342,13.574,13.574,0,0,1,3.6-8.485,2.459,2.459,0,0,0,.4-3.222c-3.283-5.9-6.514-11.831-9.772-17.746-1.2-2.182-2.427-4.35-3.641-6.526-.107-.192-.2-.389-.3-.584l.109-.061m4.683,67.038a2.671,2.671,0,0,0-3.407-2.693,1.445,1.445,0,0,0-.792.732.907.907,0,0,0,.321.827c.835.463.7.987.276,1.639a1.256,1.256,0,0,0,.025,1.693,1.647,1.647,0,0,0,1.831.443,2.732,2.732,0,0,0,1.746-2.641" fill="#ffa7b0"/>
      <path id="Path_3424" data-name="Path 3424" d="M129.438,107.671c-.051-.471-.087-.944-.154-1.414a11.468,11.468,0,0,0-4.468-7.479,39.639,39.639,0,0,0-9.138-5.049c-4.133-1.813-8.308-3.533-12.414-5.4a29.062,29.062,0,0,1-7.3-4.691,13.292,13.292,0,0,1-4.748-10.524q.013-1,.038-2c0-.04.048-.078.1-.158a3.286,3.286,0,0,1,.436.275,17.4,17.4,0,0,0,8.57,3.75c3.933.721,7.89,1.316,11.826,2.024a29.331,29.331,0,0,1,12.086,4.721,18.044,18.044,0,0,1,7.866,12.973,19.919,19.919,0,0,1-2.071,12.259c-.142.257-.3.507-.45.761l-.178-.041" transform="translate(-18.574 -14.447)" fill="#ffa7b0"/>
      <path id="Path_3425" data-name="Path 3425" d="M110.086,56.781c3.188,3.094,7.06,9.914,7.236,14.233-.152-.207-.263-.337-.351-.481a11.388,11.388,0,0,0-9.081-5.478c-3.244-.327-6.5-.5-9.75-.793-4.87-.436-9.615-1.341-13.813-4.059a25.048,25.048,0,0,1-5.671-5.3c-2.639-3.22-5.177-6.522-7.811-9.745a29.567,29.567,0,0,0-10.279-8.439A24.086,24.086,0,0,0,54.1,34.8c-.275-.044-.548-.1-.9-.167a21.16,21.16,0,0,1,10.079,1.7,31.283,31.283,0,0,1,10,7.588A9.87,9.87,0,0,1,74.4,45.19a1.792,1.792,0,0,0,2.109.714,38.169,38.169,0,0,1,21.957,2.388c1.362.593,2.622,1.414,3.975,2.03a3.526,3.526,0,0,1,2.118,3.182c.285,2.719.342,5.376-1.029,7.879a1.969,1.969,0,0,0,.551,2.369,1.854,1.854,0,0,0,2.34.244,6.868,6.868,0,0,0,1.589-1.638,13.8,13.8,0,0,0,1.861-4.938c.033-.15.063-.3.107-.448a1.015,1.015,0,0,1,.105-.192" transform="translate(-10.832 -7.03)" fill="#ffa7b0"/>
      <path id="Path_3426" data-name="Path 3426" d="M108.816,98.476c2.9,1.62,5.694,3.189,8.5,4.748a43.806,43.806,0,0,1,8.232,5.53,17.342,17.342,0,0,1,5.947,13.123,20.861,20.861,0,0,1-5.275,14.707,19.436,19.436,0,0,1-6.56,4.77c.3-.69.522-1.209.753-1.723a13.445,13.445,0,0,0,1.128-7.581,18.6,18.6,0,0,0-2.718-7.143c-2.307-3.736-4.718-7.406-7.082-11.107a21.711,21.711,0,0,1-3.569-8.851,13.735,13.735,0,0,1,.375-5.8c.064-.213.167-.416.273-.675" transform="translate(-21.996 -20.052)" fill="#ffa7b0"/>
      <path id="Path_3427" data-name="Path 3427" d="M43.995,138.669c1.658-1.241,3.266-2.555,4.983-3.708a32.992,32.992,0,0,1,13.045-5.44,21.908,21.908,0,0,1,10.878.723,13.851,13.851,0,0,1,9.588,11.07c.5,2.54.9,5.1,1.4,7.642a11.635,11.635,0,0,0,.765,2.332c1.384,3.206,3.581,4.406,7.118,4.226a29.148,29.148,0,0,0,4.571-.937c.221-.048.434-.125.661-.192.012.08.037.145.021.157-3.092,2.313-6.456,3.534-10.3,2.243a10.707,10.707,0,0,1-6-5.591c-1.153-2.2-2.154-4.486-3.225-6.733a13.484,13.484,0,0,0-4.91-5.9,8.5,8.5,0,0,0-7.355-1.139,5.394,5.394,0,0,0-3.874,5.633c.119,2.205,2.086,4.269,4.627,4.855a4.3,4.3,0,0,0,5.294-5.143c-.474-2.4-4.119-3.642-5.97-2.041a2.448,2.448,0,0,0-.28,3.482,2.317,2.317,0,0,1-.574-3.2,3.973,3.973,0,0,1,4.643-1.663c4.03,1.031,4.4,5.007,3.074,7.711-1.3,2.645-4.413,3.819-7.527,3.04a9.229,9.229,0,0,1-4.289-2.453c-1.248-1.223-2.5-2.445-3.733-3.682a16.582,16.582,0,0,0-9.549-4.586c-.988-.153-1.973-.33-2.959-.495l-.123-.218" transform="translate(-8.958 -26.3)" fill="#ffa7b0"/>
      <path id="Path_3428" data-name="Path 3428" d="M52.575,38.47c3.65.775,6.985,2.028,8.469,5.822a36.792,36.792,0,0,1,1.813,6.264,22.553,22.553,0,0,0,3.363,8.035,6.2,6.2,0,0,1,.5,1.457,5.36,5.36,0,0,1-1.663.3c-2.959-.422-5.172-2.177-7.108-4.29A22.319,22.319,0,0,1,52.8,45.2a17.865,17.865,0,0,1-.221-6.735" transform="translate(-10.66 -7.833)" fill="#ffa7b0"/>
      <path id="Path_3429" data-name="Path 3429" d="M66.033,118.226a22.868,22.868,0,0,1,7.671-3.431c3.708-.786,7.459-1.377,11.159-2.2,4.521-1,8.02-3.385,9.666-7.918,1.073-2.953.656-5.915-.161-8.853-.061-.218-.125-.435-.191-.667.07,0,.133-.018.152,0a11.031,11.031,0,0,1,2.835,6.506,11.49,11.49,0,0,1-2.388,8.667,14.349,14.349,0,0,1-8.875,5.123,59.845,59.845,0,0,1-6.873.766,46.333,46.333,0,0,0-12.641,2.019,1.777,1.777,0,0,1-.355-.018" transform="translate(-13.446 -19.375)" fill="#ffa7b0"/>
      <path id="Path_3430" data-name="Path 3430" d="M62.238,77.894a5.555,5.555,0,0,1,5.335,3.119,2.909,2.909,0,0,1-1.026,4.269,10.54,10.54,0,0,1-7.669,1.465,2.406,2.406,0,0,1-1.9-2.253,5.723,5.723,0,0,1,2.784-5.968,10.792,10.792,0,0,1,2.411-.831l.061.2m.342,4.859a15.691,15.691,0,0,0,2.272-1.015,1.447,1.447,0,0,0,.205-2.269,3.621,3.621,0,0,0-4.81-.032,1.38,1.38,0,0,0,.159,2.3,14.59,14.59,0,0,0,2.173,1.018" transform="translate(-11.589 -15.821)" fill="#ffa7b0"/>
      <path id="Path_3431" data-name="Path 3431" d="M108.015,44.236q2.986,1,5.971,1.994c.316.106.624.237.938.347,1.377.479,1.488.35,1.654-1.078.23-1.981.564-3.95.886-5.919a2.882,2.882,0,0,1,.518-1.115c-.091.548-.191,1.1-.271,1.645a14.6,14.6,0,0,0,.539,6.323,9.027,9.027,0,0,0,1.835,3.056c1.477,1.744,3.107,3.357,4.658,5.038a9.845,9.845,0,0,1,1.3,1.75c-.3-.264-.6-.538-.913-.789-1.443-1.156-2.867-2.339-4.348-3.446-1-.747-1.555-.417-1.67.851-.19,2.091-.342,4.191-.653,6.265a11.511,11.511,0,0,1-.983,2.624,23.834,23.834,0,0,0,.092-9.613,6.034,6.034,0,0,0-3.15-4.272c-1.99-1.164-4.056-2.2-6.09-3.291-.133-.072-.268-.138-.4-.206l.086-.164" transform="translate(-21.977 -7.832)" fill="#ffa7b0"/>
    </g>
  </g>
</svg>
